<svg xmlns="http://www.w3.org/2000/svg" width="665.968" height="1538.541" viewBox="0 0 665.968 1538.541">
  <path id="Path_540" data-name="Path 540" d="M27,57.045V10.709C27-.728,35.954-10,47-10H633.5c11.046,0,20,9.272,20,20.709v45.3A6.873,6.873,0,0,1,646.75,63,6.873,6.873,0,0,0,640,69.988v5.695a6.873,6.873,0,0,0,6.75,6.989,6.873,6.873,0,0,1,6.75,6.989v27.7a4.582,4.582,0,0,1-4.5,4.66,4.582,4.582,0,0,0-4.5,4.66V142.47a4.328,4.328,0,0,1-4.25,4.4,4.328,4.328,0,0,0-4.25,4.4v15.014a8.909,8.909,0,0,0,8.75,9.06,8.909,8.909,0,0,1,8.75,9.06v54.1a4.582,4.582,0,0,1-4.5,4.66,4.582,4.582,0,0,0-4.5,4.66v17.344a4.328,4.328,0,0,1-4.25,4.4,4.328,4.328,0,0,0-4.25,4.4v46.6a4.253,4.253,0,1,0,8.5,0v-.777a5.092,5.092,0,0,1,5-5.177h1.25a6.363,6.363,0,0,1,6.25,6.472v23.3a6.363,6.363,0,0,1-6.25,6.472,6.363,6.363,0,0,0-6.25,6.472v17.085a6.363,6.363,0,0,0,6.25,6.472,6.363,6.363,0,0,1,6.25,6.472v42.971a6.363,6.363,0,0,1-6.25,6.472H649.5a5.092,5.092,0,0,1-5-5.177,5.092,5.092,0,0,0-5-5.177h-1a6.109,6.109,0,0,0-6,6.213v23.3a6,6,0,1,0,12,0V453.1a6.254,6.254,0,1,1,12.5,0v33.652a4.328,4.328,0,0,1-4.25,4.4,4.328,4.328,0,0,0-4.25,4.4v14.755a8.655,8.655,0,0,1-8.5,8.8,10.691,10.691,0,0,0-10.5,10.872V540.6a5.253,5.253,0,1,0,10.5,0v-1.812a7.127,7.127,0,0,1,7-7.248h1.5a8.655,8.655,0,0,1,8.5,8.8v89.825a6.363,6.363,0,0,1-6.25,6.472h-.5a5.854,5.854,0,0,1-5.75-5.954v-1.553a4.253,4.253,0,1,0-8.5,0v32.617a4.253,4.253,0,1,0,8.5,0v-4.142a6.254,6.254,0,1,1,12.5,0v34.688a4.328,4.328,0,0,1-4.25,4.4,4.328,4.328,0,0,0-4.25,4.4v31.581a4.328,4.328,0,0,1-4.25,4.4,4.328,4.328,0,0,0-4.25,4.4V749.5a8.655,8.655,0,0,0,8.5,8.8,8.655,8.655,0,0,1,8.5,8.8v51.514a6.254,6.254,0,1,1-12.5,0V805.158a4.253,4.253,0,1,0-8.5,0v28.734a10.691,10.691,0,0,0,10.5,10.872A10.691,10.691,0,0,1,657,855.636v29.51a10.691,10.691,0,0,1-10.5,10.872H645a9.163,9.163,0,0,0-9,9.319v2.848a6.363,6.363,0,0,0,6.25,6.472,6.363,6.363,0,0,1,6.25,6.472v11.908a4.328,4.328,0,0,0,4.25,4.4,4.328,4.328,0,0,1,4.25,4.4v38.829a6.363,6.363,0,0,1-6.25,6.472h-.25a6.109,6.109,0,0,1-6-6.213v-1.812a4.253,4.253,0,1,0-8.5,0v45.56a4.253,4.253,0,1,0,8.5,0v-11.39a6.254,6.254,0,1,1,12.5,0v26.145a8.658,8.658,0,0,1-8.5,8.8,8.658,8.658,0,0,0-8.5,8.8v6.989a4.326,4.326,0,0,0,4.25,4.4,4.326,4.326,0,0,1,4.25,4.4v15.014a4.326,4.326,0,0,0,4.25,4.4,4.326,4.326,0,0,1,4.25,4.4v15.791a8.658,8.658,0,0,1-8.5,8.8,8.658,8.658,0,0,0-8.5,8.8v6.73a10.184,10.184,0,0,1-10,10.354,10.184,10.184,0,0,0-10,10.354v16.567a8.144,8.144,0,0,0,8,8.284h.75a7.385,7.385,0,0,0,7.25-7.507v-1.036a6.254,6.254,0,1,1,12.5,0v19.932c0,.891-16-4.417-22.99,4.66-3.137,4.069-.128,19.175,0,25.679.11,5.611,12.239-7.2,18.99,0,4.063,4.331,3.592,28.471,4,33.134,1.611,18.411-21.066-10.665-20.5,9.94.136,4.956.806,25.635,2,35.005,1.92,22.087,1.92,30.342,1.92,30.342s15.858-9.176,16.591,0c1.637,11.572.211,33.128,0,50.838-9.353,6.815-8.6-10.354-11.751-24.437-5.17-7.444-4.84,9.518-4.84,9.518s-1.3,30.028-1.92,30.028c-.641,4.059-10.141,2.606-10.49,11.583-.125,3.225-1.652,15.086,3.481,19.908,7.67,7.206,5.019,8.378,5.019,10.136v10.1a5.851,5.851,0,0,0,5.75,5.954,5.851,5.851,0,0,1,5.75,5.954v12.425a5.851,5.851,0,0,1-5.75,5.954,5.851,5.851,0,0,0-5.75,5.954v1.035a6.871,6.871,0,0,0,6.75,6.989h1.25a8.145,8.145,0,0,1,8,8.284v5.436a12.469,12.469,0,0,1-12.25,12.684h-6.25a6.111,6.111,0,0,1-6-6.213,6.111,6.111,0,0,0-6-6.213h-10.5a6.111,6.111,0,0,0-6,6.213,6.111,6.111,0,0,1-6,6.213h-35a2.546,2.546,0,0,1-2.5-2.589,2.546,2.546,0,0,0-2.5-2.589h-14.5a6.618,6.618,0,0,1-6.5-6.73,6.618,6.618,0,0,0-6.5-6.73H508.76a4.839,4.839,0,0,0-4.75,4.918,4.839,4.839,0,0,1-4.75,4.918H484.01a7.638,7.638,0,0,0-7.5,7.766,7.638,7.638,0,0,1-7.5,7.766H429.26a5.957,5.957,0,0,1,0-11.908h4.25a6.734,6.734,0,0,0,0-13.461H414.76a12.47,12.47,0,0,0-12.25,12.684,12.469,12.469,0,0,1-12.25,12.684h-30.5a5.851,5.851,0,0,1-5.75-5.954v-1.035a4.839,4.839,0,0,1,4.75-4.918,4.839,4.839,0,0,0,4.75-4.918V1508.9a6.618,6.618,0,0,0-6.5-6.73h-29.5a6.618,6.618,0,0,0-6.5,6.73v1.035a5.6,5.6,0,0,0,5.5,5.695,5.6,5.6,0,0,1,5.5,5.7v.259a5.851,5.851,0,0,1-5.75,5.954h-22a5.851,5.851,0,0,1-5.75-5.954,5.852,5.852,0,0,0-5.75-5.954h-22.5a5.852,5.852,0,0,0-5.75,5.954,5.851,5.851,0,0,1-5.75,5.954h-20.5a9.417,9.417,0,0,1-9.25-9.578,9.417,9.417,0,0,0-9.25-9.578h-7.25a6.111,6.111,0,0,0-6,6.213,6.111,6.111,0,0,1-6,6.213h-26a9.164,9.164,0,0,1-9-9.319v-4.918a4.326,4.326,0,0,1,4.25-4.4,4.326,4.326,0,0,0,4.25-4.4v-1.553a5.851,5.851,0,0,0-5.75-5.954h-16a5.851,5.851,0,0,0-5.75,5.954V1497a5.092,5.092,0,0,0,5,5.177,5.092,5.092,0,0,1,5,5.177v1.553a6.618,6.618,0,0,1-6.5,6.73H130.76a5.852,5.852,0,0,0-5.75,5.954,5.851,5.851,0,0,1-5.75,5.954H90.76a5.957,5.957,0,0,1,0-11.908h.25a6.112,6.112,0,0,0,6-6.213v-.518a6.618,6.618,0,0,0-6.5-6.73H79.01a6.618,6.618,0,0,0-6.5,6.73,6.618,6.618,0,0,1-6.5,6.73h-9.5a6.618,6.618,0,0,1-6.5-6.73,6.618,6.618,0,0,0-6.5-6.73h-5a9.164,9.164,0,0,0-9,9.319,9.164,9.164,0,0,1-9,9.319h-8a9.164,9.164,0,0,1-9-9.319v-3.883a5.345,5.345,0,0,1,5.25-5.436,5.345,5.345,0,0,0,5.25-5.436v-17.085a5.345,5.345,0,0,0-5.25-5.436,5.345,5.345,0,0,1-5.25-5.436v-18.12a5.345,5.345,0,0,1,5.25-5.436,5.345,5.345,0,0,0,5.25-5.436s-16.318-21.654-17.047-48.264c-.344-12.58,13.912-26.906,14.552-39.642.58-11.537,9.74-19.909,9.7-28.78-.19-37.912-7.962-34.964-7.962-34.964l-16.286-21.665-4.34-7.179-.3-4.117-.287-4,.583-1.132,4.34-8.426,16.286-15.93,1.25-30.169a5.345,5.345,0,0,0-5.25-5.436A5.345,5.345,0,0,1,4,1184.65v-8.284a6.871,6.871,0,0,1,6.75-6.989,6.871,6.871,0,0,0,6.75-6.989v-17.861a8.658,8.658,0,0,0-8.5-8.8,8.658,8.658,0,0,1-8.5-8.8v-28.475a4.579,4.579,0,0,1,4.5-4.66,4.579,4.579,0,0,1,4.5,4.66v1.294a5.852,5.852,0,0,0,5.75,5.954H16a6.618,6.618,0,0,0,6.5-6.73v-6.989a9.417,9.417,0,0,0-9.25-9.578A9.417,9.417,0,0,1,4,1072.821v-4.142a5.345,5.345,0,0,1,5.25-5.436,5.345,5.345,0,0,0,5.25-5.436v-15.273a7.125,7.125,0,0,0-7-7.248,7.127,7.127,0,0,1-7-7.248v-18.12a4.582,4.582,0,0,1,4.5-4.66,4.582,4.582,0,0,0,4.5-4.66V988.173a6.618,6.618,0,0,1,6.5-6.73,6.618,6.618,0,0,0,6.5-6.73V959.7a6.618,6.618,0,0,0-6.5-6.73,6.618,6.618,0,0,1-6.5-6.73v-6.73a6.618,6.618,0,0,1,6.5-6.73,6.618,6.618,0,0,0,6.5-6.73V891.359a4,4,0,1,0-8,0v5.954a5.346,5.346,0,0,1-5.25,5.436A5.346,5.346,0,0,1,4,897.313V836.739A5.346,5.346,0,0,1,9.25,831.3a5.346,5.346,0,0,1,5.25,5.436v1.294a6.618,6.618,0,0,0,6.5,6.73h1.25A7.891,7.891,0,0,0,30,836.739V801.016a7.891,7.891,0,0,0-7.75-8.025,7.891,7.891,0,0,0-7.75,8.025V809.3a5.346,5.346,0,0,1-5.25,5.436A5.346,5.346,0,0,1,4,809.3V742.513a5.346,5.346,0,0,1,5.25-5.436,5.346,5.346,0,0,1,5.25,5.436v3.624a7.891,7.891,0,0,0,7.75,8.025A7.891,7.891,0,0,0,30,746.137V724.91a7.891,7.891,0,0,0-7.75-8.025,7.891,7.891,0,0,1-7.75-8.025v-31.84a4,4,0,1,1,8,0v1.553a5.6,5.6,0,0,0,5.5,5.695h.25A5.854,5.854,0,0,0,34,678.315V646.734a5.753,5.753,0,1,0-11.5,0v3.883a6.618,6.618,0,0,1-6.5,6.73,6.618,6.618,0,0,1-6.5-6.73V635.344a10.436,10.436,0,0,1,10.25-10.613A10.436,10.436,0,0,0,30,614.117v-17.6a7.891,7.891,0,0,0-7.75-8.025h-3a4.837,4.837,0,0,0-4.75,4.918,4.837,4.837,0,0,1-4.75,4.918h-.5A5.346,5.346,0,0,1,4,592.89V536.976a5.346,5.346,0,0,1,5.25-5.436A5.346,5.346,0,0,0,14.5,526.1V512.643a7.891,7.891,0,0,1,7.75-8.025A7.891,7.891,0,0,0,30,496.594V457.247a5.253,5.253,0,1,0-10.5,0v3.624a7.891,7.891,0,0,1-7.75,8.025A7.891,7.891,0,0,1,4,460.871V430.325a9.418,9.418,0,0,1,9.25-9.578h4.5a4.837,4.837,0,0,1,4.75,4.918,4.837,4.837,0,0,0,4.75,4.918h1A5.854,5.854,0,0,0,34,424.63V391.5a5.753,5.753,0,1,0-11.5,0v4.66a9.418,9.418,0,0,1-9.25,9.578A9.418,9.418,0,0,1,4,396.155V344.383a5.345,5.345,0,0,1,5.25-5.436,5.345,5.345,0,0,1,5.25,5.436v.518a5.854,5.854,0,0,0,5.75,5.954h.5A6.364,6.364,0,0,0,27,344.383V318.5a9.927,9.927,0,0,0-9.75-10.1,9.927,9.927,0,0,1-9.75-10.1V268.018a6.109,6.109,0,0,1,6-6.213,6.109,6.109,0,0,1,6,6.213v1.294a7.382,7.382,0,0,0,7.25,7.507H29a9.673,9.673,0,0,0,9.5-9.837V256.369a5.854,5.854,0,0,0-5.75-5.954A5.854,5.854,0,0,1,27,244.462V229.448a6.364,6.364,0,0,0-6.25-6.472A6.364,6.364,0,0,1,14.5,216.5v-9.837a7.891,7.891,0,0,1,7.75-8.025A7.891,7.891,0,0,0,30,190.618V159.555a5.253,5.253,0,1,0-10.5,0v4.4a6.109,6.109,0,0,1-6,6.213,6.109,6.109,0,0,1-6-6.213V139.881a9.927,9.927,0,0,1,9.75-10.1A9.927,9.927,0,0,0,27,119.69v-4.142a6.364,6.364,0,0,0-6.25-6.472,6.364,6.364,0,0,1-6.25-6.472V95.1a12.218,12.218,0,0,1,12-12.425H29a9.673,9.673,0,0,0,9.5-9.837V68.953A5.855,5.855,0,0,0,32.75,63,5.855,5.855,0,0,1,27,57.045Z" transform="translate(8.468 10.5)" fill="#fec011" stroke="#000" stroke-width="1"/>
</svg>
