<svg xmlns="http://www.w3.org/2000/svg" width="229.123" height="795.879" viewBox="0 0 229.123 795.879">
  <path id="Path_62" data-name="Path 62" d="M9.694,30.622V2.547C9.694-4.382,12.8-10,16.633-10H220.122c3.832,0,6.939,5.618,6.939,12.547V29.995c0,2.339-1.048,4.235-2.342,4.235s-2.342,1.9-2.342,4.235v3.451c0,2.339,1.049,4.235,2.342,4.235s2.342,1.9,2.342,4.235V67.167c0,1.559-.7,2.823-1.561,2.823s-1.561,1.264-1.561,2.823V82.38c0,1.472-.66,2.666-1.475,2.666s-1.475,1.194-1.475,2.666v9.1c0,3.031,1.359,5.489,3.036,5.489s3.036,2.458,3.036,5.49v32.78c0,1.559-.7,2.823-1.561,2.823s-1.561,1.264-1.561,2.823v10.508c0,1.472-.66,2.666-1.475,2.666s-1.475,1.194-1.475,2.666v28.232c0,1.472.66,2.666,1.475,2.666s1.475-1.194,1.475-2.666v-.471c0-1.732.777-3.137,1.735-3.137h.434c1.2,0,2.169,1.755,2.169,3.921v14.116c0,2.166-.971,3.921-2.169,3.921s-2.168,1.755-2.168,3.921v10.352c0,2.166.971,3.921,2.168,3.921s2.169,1.755,2.169,3.921v26.036c0,2.166-.971,3.921-2.169,3.921h-.434c-.958,0-1.735-1.4-1.735-3.137s-.777-3.137-1.735-3.137h-.347c-1.15,0-2.082,1.685-2.082,3.764v14.116c0,2.079.932,3.764,2.082,3.764s2.082-1.685,2.082-3.764v-1.725c0-2.166.971-3.921,2.168-3.921s2.169,1.755,2.169,3.921v20.39c0,1.472-.66,2.666-1.475,2.666s-1.475,1.194-1.475,2.666v8.94c0,2.945-1.32,5.333-2.949,5.333-2.012,0-3.643,2.949-3.643,6.587v6.43c0,1.819.816,3.294,1.822,3.294s2.168,1.819,2.168,0v-1.1c0-2.425,1.087-4.391,2.429-4.391h.52c1.629,0,2.949,2.388,2.949,5.333l-.347,19.292.173,13.645c0,2.166-.971,3.921-2.169,3.921h-.173c-1.1,0-4.926-2.039-5.716-2.039-.814,0-1.483.915-1.483,2.387l-.173,33.407c0,1.473.66,2.666,1.475,2.666s1.475-1.194,1.475-2.666v-2.509c0-2.166,3.226-4.269,4.424-4.269s2.169,1.755,2.169,3.921v21.017c0,1.472-.66,2.666-1.475,2.666s-1.475,1.194-1.475,2.666v19.135c0,1.472-.66,2.666-1.475,2.666s-1.475,1.194-1.475,2.666v4.862c0,2.945,1.321,5.333,2.949,5.333s2.949,2.388,2.949,5.332v31.212c0,2.166-.971,3.921-2.169,3.921s-2.168-1.755-2.168-3.921V483.9c0-1.472-.66-2.666-1.475-2.666s-1.475,1.194-1.475,2.666v17.41c0,3.638,1.631,6.587,3.643,6.587s3.643,2.949,3.643,6.587v17.88c0,3.638-1.631,6.587-3.643,6.587h-.52c-1.725,0-3.123,2.528-3.123,5.646v1.725c0,2.166.971,3.921,2.168,3.921s2.168,1.755,2.168,3.921v7.215c0,1.473.66,2.666,1.475,2.666s1.475,1.194,1.475,2.667v23.526c0,2.166-.971,3.921-2.169,3.921h-.087c-1.15,0-2.082-1.685-2.082-3.764v-1.1c0-1.473-.66-2.666-1.475-2.666s-1.475,1.194-1.475,2.666v27.6c0,1.472.66,2.666,1.475,2.666s1.475-1.194,1.475-2.666V610c0-2.166.971-3.921,2.168-3.921s2.169,1.755,2.169,3.921V625.84c0,2.942-1.321,5.333-2.949,5.333s-2.949,2.39-2.949,5.333v4.235c0,1.474.66,2.666,1.475,2.666s1.475,1.192,1.475,2.666v9.1c0,1.474.66,2.666,1.475,2.666s1.475,1.192,1.475,2.666v9.567c0,2.943-1.321,5.333-2.949,5.333s-2.949,2.39-2.949,5.333v4.078c0,3.463-1.553,6.274-3.47,6.274s-3.47,2.811-3.47,6.274V707.4c0,2.773,1.243,5.019,2.776,5.019h.26c1.389,0,2.515-2.039,2.515-4.549v-.627c0-2.164.971-3.921,2.168-3.921s2.168,1.757,2.168,3.921v12.077c0,3.463-1.553,6.274-3.47,6.274s-3.47,2.811-3.47,6.274v6.117c0,1.995.893,3.607,2,3.607s1.995,1.612,1.995,3.607v7.528c0,2-.893,3.607-1.995,3.607s-2,1.612-2,3.607v.627c0,2.34,1.049,4.235,2.342,4.235h.434c1.533,0,2.776,2.246,2.776,5.019v3.294c0,4.247-1.9,7.685-4.25,7.685H217.52c-1.15,0-2.082-1.688-2.082-3.764s-.932-3.764-2.082-3.764h-3.643c-1.15,0-2.082,1.688-2.082,3.764s-.932,3.764-2.082,3.764H193.407c-.479,0-.867-.7-.867-1.569s-.388-1.568-.867-1.568h-5.031c-1.246,0-2.255-1.826-2.255-4.078s-1.01-4.078-2.255-4.078h-5.118c-.91,0-1.648,1.336-1.648,2.98s-.738,2.98-1.648,2.98h-5.291c-1.437,0-2.6,2.108-2.6,4.705s-1.165,4.705-2.6,4.705H149.43c-1.1,0-1.995-1.612-1.995-3.607s.893-3.607,1.995-3.607H150.9c1.246,0,2.255-1.826,2.255-4.078s-1.01-4.078-2.255-4.078H144.4c-2.348,0-4.25,3.438-4.25,7.685s-1.9,7.685-4.25,7.685H125.317c-1.1,0-1.995-1.612-1.995-3.607v-.627c0-1.644.738-2.98,1.648-2.98s1.648-1.336,1.648-2.98v-1.1c0-2.252-1.01-4.078-2.255-4.078H114.128c-1.246,0-2.255,1.826-2.255,4.078v.627c0,1.907.854,3.451,1.908,3.451s1.908,1.543,1.908,3.45v.157c0,2-.893,3.607-1.995,3.607h-7.633c-1.1,0-1.995-1.612-1.995-3.607s-.893-3.607-1.995-3.607H94.264c-1.1,0-1.995,1.612-1.995,3.607s-.893,3.607-1.995,3.607H83.162c-1.773,0-3.209-2.6-3.209-5.8s-1.437-5.8-3.209-5.8H74.228c-1.15,0-2.082,1.688-2.082,3.764s-.932,3.764-2.082,3.764H61.044c-1.725,0-3.123-2.528-3.123-5.646v-2.98c0-1.474.66-2.666,1.475-2.666s1.475-1.192,1.475-2.666V765.9c0-2-.893-3.608-1.995-3.608H53.324c-1.1,0-1.995,1.612-1.995,3.608v.47c0,1.732.777,3.137,1.735,3.137s1.735,1.405,1.735,3.137v.941c0,2.252-1.01,4.078-2.255,4.078H45.864c-1.1,0-1.995,1.612-1.995,3.607s-.893,3.607-1.995,3.607H31.986c-1.1,0-1.995-1.612-1.995-3.607s.893-3.607,1.995-3.607h.087c1.15,0,2.082-1.688,2.082-3.764v-.313c0-2.252-1.01-4.078-2.255-4.078h-3.99c-1.246,0-2.255,1.826-2.255,4.078s-1.01,4.078-2.255,4.078H20.1c-1.246,0-2.255-1.826-2.255-4.078s-1.01-4.078-2.255-4.078H13.858c-1.725,0-3.123,2.528-3.123,5.646s-1.4,5.646-3.123,5.646H4.837c-1.725,0-3.123-2.528-3.123-5.646V772.8c0-1.819.816-3.294,1.822-3.294s1.822-1.474,1.822-3.294V755.863c0-1.819-.816-3.294-1.822-3.294s-1.822-1.474-1.822-3.294V738.3c0-1.82.816-3.294,1.822-3.294s1.822-1.474,1.822-3.294V720.416c0-1.819-.816-3.294-1.822-3.294s-1.822-1.474-1.822-3.294V708.81c0-2.34,1.049-4.235,2.342-4.235S6.4,702.681,6.4,700.34V689.518c0-2.942-1.32-5.333-2.949-5.333S.5,681.8.5,678.853V661.6c0-1.562.7-2.823,1.561-2.823s1.561,1.261,1.561,2.823v.784c0,2,.893,3.607,1.995,3.607h.26c1.246,0,2.255-1.826,2.255-4.078v-4.235c0-3.206-1.437-5.8-3.209-5.8s-3.209-2.6-3.209-5.8v-2.509c0-1.82.816-3.294,1.822-3.294s1.822-1.474,1.822-3.294v-9.254c0-2.428-1.087-4.392-2.429-4.392S.5,621.364.5,618.939V607.96c0-1.559.7-2.823,1.561-2.823s1.561-1.264,1.561-2.823v-7.529c0-2.252,1.01-4.078,2.255-4.078s2.255-1.826,2.255-4.078v-9.1c0-2.252-1.01-4.078-2.255-4.078s-2.255-1.826-2.255-4.078V565.3c0-2.252,1.01-4.078,2.255-4.078s2.255-1.826,2.255-4.078V536.126c0-1.386-.621-2.51-1.388-2.51s-1.388,1.124-1.388,2.51v3.607c0,1.819-.816,3.294-1.822,3.294s-1.822-1.475-1.822-3.294v-36.7c0-1.819.816-3.294,1.822-3.294s1.822,1.475,1.822,3.294v.784c0,2.252,1.01,4.078,2.255,4.078h.434c1.485,0,2.689-2.177,2.689-4.862V481.388c0-2.685-1.2-4.862-2.689-4.862s-2.689,2.177-2.689,4.862v5.019c0,1.819-.816,3.294-1.822,3.294s-1.822-1.475-1.822-3.294V445.942c0-1.819.816-3.294,1.822-3.294s1.822,1.475,1.822,3.294v2.2c0,2.685,1.2,4.862,2.689,4.862s2.689-2.177,2.689-4.862V435.276c0-2.685-1.2-4.862-2.689-4.862s-2.689-2.177-2.689-4.862V406.26c0-1.386.621-2.51,1.388-2.51s1.388,1.124,1.388,2.51v.941c0,1.906.854,3.451,1.908,3.451h.087c1.1,0,1.995-1.615,1.995-3.607V387.91c0-1.992-.893-3.607-1.995-3.607s-1.995,1.615-1.995,3.607v2.353c0,2.252-1.01,4.078-2.255,4.078s-2.255-1.826-2.255-4.078v-9.254c0-3.552,1.592-6.43,3.556-6.43s3.556-2.879,3.556-6.431V357.482c0-2.685-1.2-4.862-2.689-4.862H7.005c-.91,0-1.648,1.334-1.648,2.98s-.738,2.98-1.648,2.98H3.536c-1.006,0-1.822-1.475-1.822-3.294V321.408c0-1.819.816-3.294,1.822-3.294s1.822-1.475,1.822-3.294v-8.156c0-2.685,1.2-4.862,2.689-4.862s2.689-2.177,2.689-4.862V273.1c0-1.819-.816-3.294-1.822-3.294s-1.822,1.474-1.822,3.294v2.2c0,2.685-1.2,4.862-2.689,4.862s-2.689-2.177-2.689-4.862V256.789c0-3.205,3-8,4.771-8H8.046c.91,0,1.648,1.334,1.648,2.98s.738,2.98,1.648,2.98h.347c1.1,0,1.995-1.615,1.995-3.607v-20.39c0-1.993-.893-3.607-1.995-3.607s-1.995,1.615-1.995,3.607v2.823c0,3.205-2.044,1.512-3.816,1.512s-4.163-2.912-4.163-6.117l.173-15.433c0-1.819.816-3.294,1.822-3.294s1.822,1.474,1.822,3.294v.314c0,1.993.893,3.607,1.995,3.607H7.7c1.2,0,2.168-1.755,2.168-3.921L9.694,195.15v-6.117c0-2.226-.484-8-1.663-9.267a2.156,2.156,0,0,0-1.546-.675c-1.868,0-3.383-2.738-3.383-6.117l-.781-11.389c0-2.079.932-3.764,2.082-3.764s2.082,1.685,2.082,3.764v.784c0,2.512,1.733,1.412,3.123,1.412h.781c1.82,0,3.3-2.668,3.3-5.96v-6.431c0-1.992-.893-3.607-1.995-3.607s-1.995-1.615-1.995-3.607v-9.1c0-2.166-.971-3.921-2.168-3.921s-2.168-1.755-2.168-3.921v-5.96c0-2.685,1.2-4.862,2.689-4.862s2.689-2.177,2.689-4.862V92.732c0-1.819-.816-3.294-1.822-3.294s-1.822,1.475-1.822,3.294V95.4c0,2.079-.932,3.764-2.082,3.764S2.929,97.477,2.929,95.4V80.812c0-3.378,1.515-6.117,3.383-6.117s3.383-2.738,3.383-6.117V66.069c0-2.166-.971-3.921-2.168-3.921s-2.168-1.755-2.168-3.921V53.678c0-4.158,1.864-7.528,4.163-7.528h.867c1.82,0,3.3-2.668,3.3-5.96V37.837c0-1.992-.893-3.607-1.995-3.607S9.694,32.615,9.694,30.622Z" transform="translate(0 10.5)" fill="#fec011" stroke="#000" stroke-width="1"/>
</svg>
