<svg xmlns="http://www.w3.org/2000/svg" width="756" height="112.197" viewBox="0 0 756 112.197">
  <g id="Group_1" data-name="Group 1" transform="translate(38 28.472)">
    <path id="Path_1" data-name="Path 1" d="M69.483,44.77C114.075,47.1,223.3-25.367,223.3-25.367H16.827L-36.309-12.937S29.869,42.7,69.483,44.77Z" fill="#ffbe0b"/>
    <path id="Path_2" data-name="Path 2" d="M14.724-28.472-38-12.343l1.078.906.852-1.019c-.852,1.019-.851,1.019-.851,1.019l0,0,.047.039.062.052.083.069.566.469c.5.41,1.229,1.01,2.175,1.774,1.891,1.528,4.635,3.712,8.051,6.338C-19.1,2.557-9.583,9.582,1.183,16.674A281.712,281.712,0,0,0,35.806,36.467c11.813,5.522,23.542,9.463,33.682,9.993,11.433.6,26.823-3.582,43.331-10.044,16.556-6.481,34.415-15.33,50.854-24.238S195.162-5.712,206.1-12.464c5.467-3.377,9.908-6.2,12.983-8.173,1.537-.988,2.733-1.766,3.546-2.3l.925-.607.237-.156.079-.053s0,0-.73-1.109l.732,1.108,2.817-1.868Zm204.83,4.366q-.84.544-1.907,1.23c-3.063,1.969-7.49,4.781-12.942,8.148C193.8-7.992,178.8.961,162.412,9.84s-34.144,17.675-50.558,24.1c-16.462,6.444-31.4,10.431-42.228,9.865-9.636-.5-21-4.278-32.7-9.748A279.1,279.1,0,0,1,2.639,14.453C-8.058,7.406-17.526.421-24.321-4.8c-3.4-2.611-6.124-4.782-8-6.3-.74-.6-1.347-1.094-1.812-1.475L15.684-25.619Z" fill-rule="evenodd"/>
    <path id="Path_3" data-name="Path 3" d="M121.768,31.229c44.531,2.324,127.749-57.5,127.749-57.5H16.121S82.208,29.165,121.768,31.229Z" fill="#fb5607"/>
    <path id="Path_4" data-name="Path 4" d="M231.278-27.271l-218.54.428,2.475,2.068.854-1.015c-.854,1.015-.853,1.015-.852,1.016l0,0,.047.039.145.121.567.467c.5.408,1.232,1.007,2.18,1.768,1.9,1.523,4.645,3.7,8.068,6.315C33.068-10.829,42.61-3.829,53.4,3.238a282.732,282.732,0,0,0,34.7,19.723c11.838,5.5,23.59,9.43,33.753,9.958,11.428.594,25.21-2.779,39.357-8.071A323.534,323.534,0,0,0,203.288,4.931c13.246-7.338,25.091-14.747,33.623-20.32,4.267-2.787,7.707-5.116,10.081-6.749,1.187-.817,2.109-1.459,2.733-1.9.313-.22.551-.388.712-.5l.183-.13.061-.044s0,0-.774-1.076l.775,1.076,1.372-.982Zm16.473,1.379c-.583.408-1.344.937-2.268,1.573-2.359,1.623-5.782,3.94-10.029,6.714C226.959-12.055,215.171-4.683,202,2.616a320.908,320.908,0,0,1-41.728,19.753c-14.034,5.25-27.4,8.471-38.285,7.906-9.656-.5-21.043-4.263-32.767-9.713A280.111,280.111,0,0,1,54.857,1.024C44.138-6,34.65-12.958,27.84-18.163c-3.4-2.6-6.137-4.765-8.017-6.276l-.375-.3,210.941.2Z" fill-rule="evenodd"/>
    <path id="Path_5" data-name="Path 5" d="M342.1,69.349c-35.191,0-88.788-36-111.187-54v-53.4H449.087v53.4C428.088,33.35,377.291,69.349,342.1,69.349Z" transform="translate(0 10.993)" fill="#ffbe0b"/>
    <path id="Path_6" data-name="Path 6" d="M229.221-38.893H450.778v54.76l-.417.354a333.134,333.134,0,0,1-48.537,33.672c-19.815,11.191-41.66,20.3-59.717,20.3s-40.591-9.1-61.276-20.288A371.483,371.483,0,0,1,229.67,16.248l-.449-.357Zm2.662,2.393V14.812A369.538,369.538,0,0,0,282.2,47.855C302.85,59.021,324.847,67.8,342.107,67.8s38.54-8.773,58.3-19.934a331.234,331.234,0,0,0,47.708-33.033V-36.5Z" transform="translate(0 11.839)" fill-rule="evenodd"/>
    <path id="Path_7" data-name="Path 7" d="M288.934,24.483C278.142,15.9,263.8,8.428,257.973,5.763V-38.893H421.181V5.763c-2.831,0-21.672,12.48-30.74,18.72-9.583,8.19-33.216,24.57-51.085,24.57C317.02,49.054,302.424,35.208,288.934,24.483Z" transform="translate(0 11.839)" fill="#fb5607"/>
    <path id="Path_8" data-name="Path 8" d="M256.282-39.738h166.59V6.92h-1.315a2.2,2.2,0,0,0-.285.073,9.322,9.322,0,0,0-.907.349c-.753.327-1.72.814-2.863,1.435-2.282,1.239-5.172,2.965-8.277,4.9-6.178,3.843-13.138,8.457-17.684,11.548a143.258,143.258,0,0,1-22.707,15.355c-9.426,5.107-20.116,9.323-29.479,9.323-20.755,0-35.049-11.477-47.461-21.443-1.379-1.108-2.736-2.2-4.075-3.25C277.1,16.779,262.794,9.41,257,6.789l-.719-.325Zm2.665,2.323V5.056c6.3,2.918,20.124,10.147,30.657,18.425,1.354,1.064,2.714,2.154,4.086,3.253C306.2,36.757,319.7,47.576,339.355,47.576c8.584,0,18.737-3.915,28.072-8.973a140.54,140.54,0,0,0,22.31-15.094l.052-.043.056-.038c4.563-3.1,11.587-7.761,17.832-11.646,3.121-1.941,6.063-3.7,8.415-4.977,1.173-.637,2.222-1.167,3.084-1.542.364-.158.711-.3,1.031-.4V-37.415Z" transform="translate(0 12.685)" fill-rule="evenodd"/>
    <path id="Path_9" data-name="Path 9" d="M322.282,19.373A203.943,203.943,0,0,0,299.409,42.01c10.136,9.625,17.761,14.185,28.666,16.824A44.717,44.717,0,0,0,351.785,58c10.657-3.31,18.051-7.984,27.96-16.864-6.063-8.418-11.933-13.912-21.715-22.075A27.754,27.754,0,0,0,322.282,19.373Z" fill="#079dd8"/>
    <path id="Path_10" data-name="Path 10" d="M357.429,20.209a26.728,26.728,0,0,0-34.477.307A203.929,203.929,0,0,0,300.78,42.4c9.7,9.1,17.083,13.406,27.528,15.939a43.719,43.719,0,0,0,23.228-.826c10.248-3.189,17.434-7.646,26.936-16.082C372.665,33.511,366.914,28.142,357.429,20.209ZM321.5,18.843a28.948,28.948,0,0,1,37.353-.331c9.852,8.239,15.832,13.84,22.005,22.429l.578.805-.738.663c-10.036,9.013-17.6,13.82-28.5,17.213a45.941,45.941,0,0,1-24.412.864c-11.192-2.714-19.019-7.427-29.3-17.213l-.764-.727.69-.8A206.188,206.188,0,0,1,321.5,18.843Z" fill-rule="evenodd"/>
    <path id="Path_11" data-name="Path 11" d="M373.418,38.206l-.438-4.374,5.919,7.217-5.919,5.467.438-2.406Z" fill="#fff"/>
    <path id="Path_12" data-name="Path 12" d="M307.483,43.8l.383,5.249L301.1,42.338l6.765-8.506-.383,2.887Z" fill="#fff"/>
    <path id="Path_13" data-name="Path 13" d="M367.06,28.124c-19.6-15.391-44.395-5.92-54.12.634l.668-1.9,7.127-6.342,7.127-4.017,8.24-2.96,13.141.846,11.581,6.765Z"/>
    <path id="Path_14" data-name="Path 14" d="M307.05,41.394a31.977,31.977,0,0,1,2.763-10.944l1.187.557a30.651,30.651,0,0,0-2.644,10.457c-.206,3.97.692,7.706,3.738,9.895l-.758,1.078C307.753,49.861,306.834,45.55,307.05,41.394Z" fill-rule="evenodd"/>
    <path id="Path_15" data-name="Path 15" d="M373.8,40.114a25.6,25.6,0,0,0-2.769-9.664l-1.2.583a24.329,24.329,0,0,1,2.629,9.154c.2,3.462-.681,6.713-3.7,8.626l.737,1.086C373.084,47.623,374.013,43.8,373.8,40.114Z" fill-rule="evenodd"/>
    <path id="Path_16" data-name="Path 16" d="M361.141,38.483a20.718,20.718,0,1,1-20.718-20.718A20.718,20.718,0,0,1,361.141,38.483Z" fill="#ffbe0b"/>
    <path id="Path_17" data-name="Path 17" d="M340.423,56.116A17.632,17.632,0,1,0,322.79,38.483,17.632,17.632,0,0,0,340.423,56.116Zm0,3.086A20.718,20.718,0,1,0,319.7,38.483,20.718,20.718,0,0,0,340.423,59.2Z" fill-rule="evenodd"/>
    <path id="Path_18" data-name="Path 18" d="M356.067,38.06a15.65,15.65,0,0,1-31.288,0,15.65,15.65,0,0,1,31.288,0Z"/>
    <path id="Path_19" data-name="Path 19" d="M355.221,31.3A1.691,1.691,0,1,1,353.53,29.6,1.691,1.691,0,0,1,355.221,31.3Z" fill="#fff"/>
    <path id="Path_20" data-name="Path 20" d="M353.53,32.564a1.268,1.268,0,1,0-1.268-1.268A1.269,1.269,0,0,0,353.53,32.564Zm0,.423a1.691,1.691,0,1,0-1.691-1.691A1.691,1.691,0,0,0,353.53,32.987Z" fill-rule="evenodd"/>
    <path id="Path_21" data-name="Path 21" d="M340.074,4.235a.665.665,0,0,1,.681.648l.221,9.081a.664.664,0,1,1-1.328.032l-.222-9.081A.664.664,0,0,1,340.074,4.235Zm-7.214.458a.664.664,0,0,1,.79.509c.3,1.364.749,3.433,1.151,5.2.2.886.388,1.694.536,2.3.074.3.138.555.187.738.025.092.045.162.06.212.009.028.014.043.016.048a.665.665,0,0,1-1.2.572,1.584,1.584,0,0,1-.085-.226c-.022-.072-.047-.16-.074-.259-.054-.2-.12-.462-.2-.771-.151-.618-.34-1.434-.541-2.322-.4-1.777-.858-3.85-1.154-5.217A.665.665,0,0,1,332.86,4.693Zm14.69.888a.665.665,0,0,1,.5.8l-1.773,7.752a.665.665,0,0,1-1.3-.3l1.773-7.752A.664.664,0,0,1,347.55,5.58ZM354.1,7.837a.665.665,0,0,1,.335.878l-2.88,6.423a.665.665,0,0,1-1.213-.543l2.88-6.423A.664.664,0,0,1,354.1,7.837Zm-28.262.012a.664.664,0,0,1,.891.3l3.324,6.644a.665.665,0,0,1-1.189.594L325.538,8.74A.664.664,0,0,1,325.836,7.849Zm-5.173,4.474a.666.666,0,0,1,.924.176l3.766,5.537a.665.665,0,0,1-1.1.747l-3.767-5.537A.665.665,0,0,1,320.663,12.323Zm39.109.024a.664.664,0,0,1,.119.932l-3.766,4.872a.665.665,0,0,1-1.052-.812l3.766-4.872A.666.666,0,0,1,359.772,12.347Zm5.132,4.9a.664.664,0,0,1,.052.938L361.19,22.4a.665.665,0,1,1-.991-.886l3.767-4.208A.664.664,0,0,1,364.9,17.25Zm-49.876.025a.665.665,0,0,1,.94,0l2.962,2.961,0,0,1.133,1.132m-5.039-4.1a.665.665,0,0,0,0,.94Zm5.146,4.2,0,0a.665.665,0,0,1-.94.94l-.359-.359c.005.005.013.013-.005,0l-.365-.365-.008-.008-3.473-3.472m5.146,3.264-.005,0Zm-.005,0,0,0Zm0,0,0,0Zm0,0,0,0Zm0,0-.006,0Zm-.006,0,0,0Zm0,0,0,0Zm0,0,0,0Zm0,0,0,0Zm0,0-.006-.006Zm-.006-.006-.006-.006Zm-.006-.006-.006-.006Zm-.006-.006,0,0Zm0,0,0,0Zm0,0,0,0Zm0,0,0,0Zm0,0,0,0Zm0,0,0,0Zm0,0-.007-.007Zm-.007-.007,0,0Zm0,0,0,0Zm0,0-.007-.007Zm-.007-.007-.007-.007Zm-.007-.007-.008-.008Zm49.93,1.411a.665.665,0,0,1,.035.939l-2.88,3.1a.665.665,0,0,1-.975-.9l2.881-3.1A.664.664,0,0,1,370.009,22.8Zm-59.412.017a.665.665,0,0,1,.94,0l3.1,3.1a.665.665,0,1,1-.94.94l-3.1-3.1A.665.665,0,0,1,310.6,22.812Zm55.735,28.471a.664.664,0,0,1,.914-.218l2.881,1.772a.665.665,0,0,1-.7,1.132L366.55,52.2A.664.664,0,0,1,366.332,51.283Zm-4.361,2.967a.665.665,0,0,0-1.276.261.716.716,0,0,0,.064.293v0a1.111,1.111,0,0,0,.06.112c.034.055.074.111.112.162.079.1.186.236.308.381.247.292.586.674.956,1.084.743.822,1.632,1.778,2.225,2.408a.665.665,0,1,0,.968-.911c-.589-.626-1.472-1.574-2.206-2.387-.368-.407-.694-.776-.927-1.051-.118-.139-.205-.247-.26-.32ZM318.4,55.369a.663.663,0,0,1,0,.94l-2.437,2.436a.665.665,0,1,1-.94-.94l2.437-2.436A.665.665,0,0,1,318.4,55.369Zm36.557.837a.664.664,0,0,1,.934.1l4.431,5.537a.665.665,0,1,1-1.038.83l-4.431-5.537A.665.665,0,0,1,354.962,56.206Zm-30.633,1.548a.665.665,0,0,1,.11.933l-3.323,4.208a.665.665,0,0,1-1.044-.823l3.324-4.208A.664.664,0,0,1,324.329,57.754Zm26.336.584a.666.666,0,0,1,.884.321l3.1,6.644a.664.664,0,1,1-1.2.562l-3.1-6.644A.665.665,0,0,1,350.665,58.338Zm-21.364.668a.665.665,0,0,1,.311.887l-2.88,5.98a.665.665,0,1,1-1.2-.576l2.88-5.98A.665.665,0,0,1,329.3,59.005Zm16.2.169a.665.665,0,0,1,.782.521l1.551,7.752a.665.665,0,0,1-1.3.261l-1.551-7.752A.665.665,0,0,1,345.5,59.174Zm-10.8.889a.664.664,0,0,1,.5.794l-1.551,6.866a.665.665,0,0,1-1.3-.293l1.551-6.866A.665.665,0,0,1,334.7,60.063Zm5.392.205a.664.664,0,0,1,.665.665v7.752a.665.665,0,0,1-1.329,0V60.933A.664.664,0,0,1,340.09,60.268Z" fill-rule="evenodd"/>
    <path id="Path_22" data-name="Path 22" d="M224.99,21.914C180.489,24.265,106.6-26.208,106.6-26.208H318.859S264.523,19.824,224.99,21.914Z" fill="#3a86ff"/>
    <path id="Path_23" data-name="Path 23" d="M101.53-27.054H322.242l-2.808,2.327-.851-1.01c.851,1.01.851,1.01.85,1.011l-.01.009-.031.026-.121.1-.469.383c-.413.334-1.021.823-1.809,1.446-1.575,1.245-3.867,3.024-6.74,5.164-5.745,4.279-13.821,10.007-23.143,15.8-18.577,11.547-42.348,23.515-62.527,24.558-11.387.589-24.556-2.127-37.836-6.464a289.076,289.076,0,0,1-38.875-16.4c-12.081-6.061-22.761-12.193-30.42-16.809-3.83-2.308-6.906-4.239-9.027-5.593-1.06-.677-1.881-1.21-2.438-1.575l-.634-.417-.163-.108-.055-.037s0,0,.741-1.092l-.742,1.092Zm8.807,2.633c2.078,1.322,4.963,3.126,8.5,5.254,7.617,4.591,18.235,10.687,30.239,16.709a286.4,286.4,0,0,0,38.507,16.251c13.146,4.293,25.955,6.9,36.866,6.335,19.439-1,42.7-12.628,61.255-24.159,9.243-5.745,17.256-11.428,22.959-15.676,2.553-1.9,4.641-3.514,6.168-4.715Z" fill-rule="evenodd"/>
    <path id="Path_24" data-name="Path 24" d="M610.517,44.77C565.925,47.1,456.7-25.367,456.7-25.367H665.657l50.652,12.429S650.131,42.7,610.517,44.77Z" fill="#ffbe0b"/>
    <path id="Path_25" data-name="Path 25" d="M668.9-27.712,718-12.343l-1.078.906-.852-1.019c.852,1.019.852,1.019.851,1.019l0,0-.046.039-.062.052-.083.069-.566.469c-.5.41-1.229,1.01-2.175,1.774-1.891,1.528-4.635,3.712-8.051,6.338-6.83,5.251-16.352,12.276-27.118,19.368a281.736,281.736,0,0,1-34.623,19.793c-11.813,5.522-23.541,9.463-33.682,9.993-11.433.6-26.823-3.582-43.331-10.044-16.556-6.481-34.415-15.33-50.854-24.238S484.838-5.712,473.9-12.464c-5.467-3.377-9.908-6.2-12.983-8.173-1.537-.988-2.733-1.766-3.546-2.3l-.925-.607-.237-.156-.079-.053s0,0,.73-1.109l-.732,1.108-2.817-1.868ZM460.446-24.105q.84.544,1.907,1.23c3.063,1.969,7.49,4.781,12.942,8.148C486.2-7.992,501.2.961,517.588,9.84s34.144,17.675,50.558,24.1c16.462,6.444,31.4,10.431,42.228,9.865,9.636-.5,21-4.278,32.7-9.748a279.119,279.119,0,0,0,34.288-19.605C688.058,7.406,697.526.421,704.321-4.8c3.4-2.611,6.124-4.782,8-6.3.739-.6,1.347-1.094,1.811-1.475l-46.19-12.284Z" fill-rule="evenodd"/>
    <path id="Path_26" data-name="Path 26" d="M558.232,31.229c-44.531,2.324-127.749-57.5-127.749-57.5h233.4S597.792,29.165,558.232,31.229Z" fill="#fb5607"/>
    <path id="Path_27" data-name="Path 27" d="M456.523-25.891l210.739-.951-2.475,2.068-.854-1.015c.854,1.015.853,1.015.853,1.016l0,0-.047.039-.145.121-.567.467c-.5.408-1.232,1.007-2.18,1.768-1.9,1.523-4.644,3.7-8.067,6.315-6.845,5.232-16.387,12.232-27.175,19.3a282.684,282.684,0,0,1-34.7,19.723c-11.838,5.5-23.591,9.43-33.753,9.958-11.428.594-25.21-2.779-39.357-8.071A323.52,323.52,0,0,1,476.713,4.931c-13.247-7.338-25.092-14.747-33.624-20.32-4.267-2.787-7.707-5.116-10.081-6.749-1.187-.817-2.108-1.459-2.733-1.9-.313-.22-.551-.388-.712-.5l-.182-.13-.062-.044s0,0,.774-1.076l-.775,1.076-1.372-.982Zm-24.274,0c.583.408,1.344.937,2.268,1.573,2.359,1.623,5.782,3.94,10.029,6.714C453.041-12.055,464.829-4.683,478,2.616a320.908,320.908,0,0,0,41.728,19.753c14.034,5.25,27.4,8.471,38.285,7.906,9.656-.5,21.043-4.263,32.767-9.713a280.128,280.128,0,0,0,34.36-19.536C635.862-6,645.35-12.958,652.159-18.163c3.4-2.6,6.137-4.765,8.018-6.276l.374-.3L457.412-23.16Z" fill-rule="evenodd"/>
    <path id="Path_28" data-name="Path 28" d="M455.01,21.914C499.511,24.265,573.4-26.208,573.4-26.208H361.141S415.477,19.824,455.01,21.914Z" fill="#3a86ff"/>
    <path id="Path_29" data-name="Path 29" d="M577.624-27.054H356.913l2.807,2.327.852-1.01c-.852,1.01-.852,1.01-.851,1.011l.01.009.031.026.121.1.469.383c.413.334,1.021.823,1.809,1.446,1.575,1.245,3.867,3.024,6.74,5.164,5.745,4.279,13.821,10.007,23.143,15.8,18.578,11.547,42.349,23.515,62.528,24.558,11.386.589,24.556-2.127,37.835-6.464a289.019,289.019,0,0,0,38.875-16.4C543.364-6.168,554.043-12.3,561.7-16.916c3.83-2.308,6.907-4.239,9.027-5.593,1.06-.677,1.881-1.21,2.438-1.575.279-.182.491-.322.635-.417l.162-.108.055-.037s0,0-.741-1.092l.743,1.092Zm-8.807,2.633c-2.078,1.322-4.963,3.126-8.494,5.254-7.618,4.591-18.236,10.687-30.24,16.709a286.4,286.4,0,0,1-38.507,16.251c-13.146,4.293-25.955,6.9-36.866,6.335-19.439-1-42.7-12.628-61.255-24.159C384.212-9.775,376.2-15.458,370.5-19.706c-2.553-1.9-4.642-3.514-6.169-4.715Z" fill-rule="evenodd"/>
    <path id="Path_30" data-name="Path 30" d="M386.51,68.5a4.228,4.228,0,1,1-4.228-4.228A4.228,4.228,0,0,1,386.51,68.5Z" fill="#3a86ff"/>
    <path id="Path_31" data-name="Path 31" d="M382.282,71.04a2.537,2.537,0,1,0-2.537-2.537A2.537,2.537,0,0,0,382.282,71.04Zm0,1.691a4.228,4.228,0,1,0-4.228-4.228A4.228,4.228,0,0,0,382.282,72.731Z" fill-rule="evenodd"/>
    <path id="Path_32" data-name="Path 32" d="M149.258,18.778l3.63,1.358,1.765,3.1L154.2,25.3l-1.283,1.588-3.735-1.173-3.517-3.253Z" fill="#ed1e70"/>
    <path id="Path_33" data-name="Path 33" d="M145.892,37.793l-3.63-1.357-1.765-3.1.456-2.066,1.283-1.588,3.736,1.174,3.516,3.253Z" fill="#ed1e70"/>
    <path id="Path_34" data-name="Path 34" d="M137.938,26.9l1.347-3.794,3.381-1.733,2.326.58,1.833,1.438-1.138,3.916L142.218,30.9Z" fill="#ed1e70"/>
    <path id="Path_35" data-name="Path 35" d="M157.069,29.917l-1.3,3.715L152.424,35.3l-2.319-.593-1.837-1.431,1.092-3.836,3.413-3.49Z" fill="#ed1e70"/>
    <path id="Path_36" data-name="Path 36" d="M142.245,37.529a5.308,5.308,0,0,0,7.25-1.947,5.309,5.309,0,1,0,5.3-9.2,5.308,5.308,0,1,0-9.2-5.3,5.309,5.309,0,1,0-5.3,9.2,5.309,5.309,0,0,0,1.947,7.25Zm11.4-11.807a1.534,1.534,0,0,1-.2.264,8.7,8.7,0,0,0-2.556.187,3.994,3.994,0,0,0-3.154-1.819,8.729,8.729,0,0,0-1.118-2.3,1.464,1.464,0,0,1,.128-.3,3.981,3.981,0,0,1,6.9,3.978ZM148.7,32.141a3.981,3.981,0,0,0,2.72-4.718,9.308,9.308,0,0,1,1.067-.131,3.089,3.089,0,0,1,1.645.242,3.981,3.981,0,1,1-3.978,6.9,3.075,3.075,0,0,1-1.033-1.3A8.9,8.9,0,0,1,148.7,32.141Zm-4.5-1.651a3.982,3.982,0,0,0,3.154,1.819,8.764,8.764,0,0,0,1.119,2.306,1.549,1.549,0,0,1-.129.3,3.981,3.981,0,0,1-6.9-3.978,1.534,1.534,0,0,1,.2-.264A8.739,8.739,0,0,0,144.2,30.491Zm2.191-5.969a3.981,3.981,0,0,0-2.72,4.718,9.094,9.094,0,0,1-1.067.131,3.089,3.089,0,0,1-1.645-.242,3.981,3.981,0,1,1,3.978-6.9,3.076,3.076,0,0,1,1.033,1.3A8.984,8.984,0,0,1,146.393,24.522Zm.493,4.959a1.326,1.326,0,1,1,1.007.132A1.326,1.326,0,0,1,146.886,29.481Z"/>
    <path id="Path_37" data-name="Path 37" d="M150.577,28.336a2.959,2.959,0,1,1-2.96-2.96A2.96,2.96,0,0,1,150.577,28.336Z" fill="#ffbe0b"/>
    <path id="Path_38" data-name="Path 38" d="M282.439,37.193s0,0,0,0a1.192,1.192,0,0,1-.071,1.489l-9.289,10.559a.442.442,0,0,0,.151.7l6.748,3.026a1.2,1.2,0,0,1,.713,1.111,1.194,1.194,0,0,1-.739,1.088L254.063,65.855a1.205,1.205,0,0,1-1.665-1.168,1.191,1.191,0,0,1,.3-.731l9.291-10.561a.443.443,0,0,0-.151-.7l-6.749-3.026a1.2,1.2,0,0,1-.712-1.111,1.19,1.19,0,0,1,.739-1.088L281,36.783a1.207,1.207,0,0,1,1.437.408A0,0,0,0,1,282.439,37.193Z" fill="#3a86ff"/>
    <path id="Path_39" data-name="Path 39" d="M281.972,39.134h0l.4-.45a1.192,1.192,0,0,0,.071-1.489s0,0,0,0a0,0,0,0,0,0,0A1.206,1.206,0,0,0,281,36.783L255.112,47.473a1.195,1.195,0,0,0-.55,1.75,1.213,1.213,0,0,0,.523.45l6.749,3.026a.443.443,0,0,1,.151.7l-9.291,10.561a1.2,1.2,0,0,0-.071,1.489,1.208,1.208,0,0,0,1.44.41l25.889-10.691a1.193,1.193,0,0,0,.549-1.75,1.2,1.2,0,0,0-.523-.45l-6.748-3.026a.442.442,0,0,1-.151-.7Zm-5.716,2.479-17,7.021,3.664,1.643a3.1,3.1,0,0,1,1.059,4.871l-5.169,5.876,17-7.02-3.665-1.643a3.1,3.1,0,0,1-1.058-4.871Z" fill-rule="evenodd"/>
    <path id="Path_40" data-name="Path 40" d="M397.93,33.984v0a1.193,1.193,0,0,0-.106,1.487L405.8,47.056a.442.442,0,0,1-.232.673l-7.059,2.207a1.2,1.2,0,0,0-.839,1.019,1.186,1.186,0,0,0,.127.675,1.2,1.2,0,0,0,.478.493L422.719,65.8a1.206,1.206,0,0,0,1.792-.963,1.19,1.19,0,0,0-.208-.761L416.326,52.49a.442.442,0,0,1,.232-.673l7.059-2.207a1.2,1.2,0,0,0,.839-1.019,1.192,1.192,0,0,0-.606-1.168L399.406,33.746a1.207,1.207,0,0,0-1.475.235A0,0,0,0,0,397.93,33.984Z" fill="#3a86ff"/>
    <path id="Path_41" data-name="Path 41" d="M398.164,35.967h0l-.339-.493a1.193,1.193,0,0,1,.106-1.487v0a0,0,0,0,1,0,0,1.2,1.2,0,0,1,1.475-.235L423.85,47.422a1.2,1.2,0,0,1-.233,2.187l-7.059,2.207a.442.442,0,0,0-.232.673L424.3,64.075a1.192,1.192,0,0,1-.106,1.487,1.207,1.207,0,0,1-1.478.237L398.275,52.123a1.2,1.2,0,0,1-.478-.493,1.186,1.186,0,0,1-.127-.675,1.2,1.2,0,0,1,.839-1.019l7.059-2.207a.442.442,0,0,0,.232-.673Zm5.383,3.137L419.6,48.085l-3.833,1.2a3.1,3.1,0,0,0-1.626,4.712l4.438,6.446-16.051-8.98,3.833-1.2a3.1,3.1,0,0,0,1.626-4.712Z" fill-rule="evenodd"/>
    <path id="Path_42" data-name="Path 42" d="M471.606,10.047c-.8,1.96-3.438,2.736-5.887,1.734s-3.786-3.4-2.984-5.363,3.439-2.736,5.887-1.734S472.408,8.087,471.606,10.047Z"/>
    <path id="Path_43" data-name="Path 43" d="M478.863-7.695l-7.257,17.742-1.774-.726,7.257-17.742Z" fill-rule="evenodd"/>
    <path id="Path_44" data-name="Path 44" d="M590.309,16.273a3.565,3.565,0,0,1,3.549-3.582H613.82a3.565,3.565,0,0,1,3.549,3.582v.448A3.565,3.565,0,0,1,613.82,20.3H593.858a3.565,3.565,0,0,1-3.549-3.581Z" fill="#ed1e70"/>
    <path id="Path_45" data-name="Path 45" d="M613.82,14.034H593.858a2.228,2.228,0,0,0-2.218,2.238v.448a2.228,2.228,0,0,0,2.218,2.238H613.82a2.228,2.228,0,0,0,2.218-2.238v-.448A2.228,2.228,0,0,0,613.82,14.034Zm-19.962-1.343a3.565,3.565,0,0,0-3.549,3.582v.448a3.565,3.565,0,0,0,3.549,3.581H613.82a3.565,3.565,0,0,0,3.549-3.581v-.448a3.565,3.565,0,0,0-3.549-3.582Z" fill-rule="evenodd"/>
    <path id="Path_46" data-name="Path 46" d="M214.846,19.879a6.342,6.342,0,1,1-6.343-6.342A6.343,6.343,0,0,1,214.846,19.879Z" fill="#fb5607"/>
    <path id="Path_47" data-name="Path 47" d="M208.5,23.956a4.077,4.077,0,1,0-4.077-4.077A4.078,4.078,0,0,0,208.5,23.956Zm0,2.265a6.342,6.342,0,1,0-6.342-6.342A6.343,6.343,0,0,0,208.5,26.222Z" fill-rule="evenodd"/>
    <path id="Path_48" data-name="Path 48" d="M471.074,77.383a6.342,6.342,0,1,1-6.342-6.342A6.342,6.342,0,0,1,471.074,77.383Z" fill="#ffbe0b"/>
    <path id="Path_49" data-name="Path 49" d="M464.732,81.46a4.077,4.077,0,1,0-4.078-4.077A4.077,4.077,0,0,0,464.732,81.46Zm0,2.265a6.342,6.342,0,1,0-6.343-6.342A6.342,6.342,0,0,0,464.732,83.725Z" fill-rule="evenodd"/>
    <path id="Path_50" data-name="Path 50" d="M463.463,42.711a6.342,6.342,0,1,1-6.342-6.342A6.342,6.342,0,0,1,463.463,42.711Z" fill="#f26624"/>
    <path id="Path_51" data-name="Path 51" d="M457.121,46.789a4.077,4.077,0,1,0-4.077-4.077A4.077,4.077,0,0,0,457.121,46.789Zm0,2.265a6.342,6.342,0,1,0-6.342-6.342A6.342,6.342,0,0,0,457.121,49.054Z" fill-rule="evenodd"/>
    <path id="Path_52" data-name="Path 52" d="M609.758,70.617a9.724,9.724,0,1,1-9.724-9.725A9.725,9.725,0,0,1,609.758,70.617Z" fill="#ed1e70"/>
    <path id="Path_53" data-name="Path 53" d="M600.034,78.081a7.463,7.463,0,1,0-7.464-7.463A7.464,7.464,0,0,0,600.034,78.081Zm0,2.261a9.725,9.725,0,1,0-9.725-9.725A9.725,9.725,0,0,0,600.034,80.342Z" fill-rule="evenodd"/>
    <path id="Path_54" data-name="Path 54" d="M527.732,51.591a10.148,10.148,0,1,1-10.148-10.148A10.148,10.148,0,0,1,527.732,51.591Z" fill="#3a86ff"/>
    <path id="Path_55" data-name="Path 55" d="M517.584,59.532a7.942,7.942,0,1,0-7.942-7.942A7.942,7.942,0,0,0,517.584,59.532Zm0,2.206a10.148,10.148,0,1,0-10.148-10.148A10.148,10.148,0,0,0,517.584,61.738Z" fill-rule="evenodd"/>
    <path id="Path_56" data-name="Path 56" d="M241.06,74a9.725,9.725,0,1,1-9.724-9.725A9.725,9.725,0,0,1,241.06,74Z" fill="#3a86ff"/>
    <path id="Path_57" data-name="Path 57" d="M231.336,81.515A7.515,7.515,0,1,0,223.821,74,7.514,7.514,0,0,0,231.336,81.515Zm0,2.21A9.725,9.725,0,1,0,221.611,74,9.725,9.725,0,0,0,231.336,83.725Z" fill-rule="evenodd"/>
    <path id="Path_58" data-name="Path 58" d="M142.966,62.161a6.342,6.342,0,1,1-6.342-6.342A6.342,6.342,0,0,1,142.966,62.161Z" fill="#ffbe0b"/>
    <path id="Path_59" data-name="Path 59" d="M136.624,66.316a4.155,4.155,0,1,0-4.155-4.155A4.155,4.155,0,0,0,136.624,66.316Zm0,2.187a6.342,6.342,0,1,0-6.342-6.342A6.342,6.342,0,0,0,136.624,68.5Z" fill-rule="evenodd"/>
    <path id="Path_60" data-name="Path 60" d="M75.1-.025A1.327,1.327,0,0,1,77.15,1.156L76.646,11a1.327,1.327,0,0,0,.49,1.1l7.656,6.2a1.327,1.327,0,0,1-.49,2.313L74.789,23.17a1.327,1.327,0,0,0-.894.806l-3.531,9.2a1.327,1.327,0,0,1-2.351.249l-5.376-8.256a1.327,1.327,0,0,0-1.043-.6l-9.839-.516a1.327,1.327,0,0,1-.963-2.159l6.191-7.664a1.327,1.327,0,0,0,.25-1.177L54.684,3.531A1.327,1.327,0,0,1,56.44,1.948l9.2,3.519a1.327,1.327,0,0,0,1.2-.126Z" fill="#ed1e70"/>
    <path id="Path_61" data-name="Path 61" d="M74.852,2.775,68.043,7.2a3.539,3.539,0,0,1-3.191.337l-7.583-2.9,2.1,7.842a3.539,3.539,0,0,1-.665,3.14L53.6,21.93l8.107.425a3.539,3.539,0,0,1,2.78,1.6l4.43,6.8,2.91-7.579a3.539,3.539,0,0,1,2.384-2.149l7.839-2.111-6.309-5.109a3.539,3.539,0,0,1-1.307-2.931Zm2.3-1.618A1.327,1.327,0,0,0,75.1-.025L66.839,5.341a1.327,1.327,0,0,1-1.2.126l-9.2-3.519a1.327,1.327,0,0,0-1.756,1.583l2.549,9.517a1.327,1.327,0,0,1-.25,1.177l-6.191,7.664a1.327,1.327,0,0,0,.963,2.159l9.839.516a1.327,1.327,0,0,1,1.043.6l5.376,8.256a1.327,1.327,0,0,0,2.351-.249l3.531-9.2a1.327,1.327,0,0,1,.894-.806L84.3,20.608a1.327,1.327,0,0,0,.49-2.313l-7.656-6.2a1.327,1.327,0,0,1-.49-1.1Z" fill-rule="evenodd"/>
  </g>
</svg>
