<svg width="463" height="174" viewBox="0 0 463 174" fill="none" xmlns="http://www.w3.org/2000/svg">
<path d="M10.3332 0.370142H14.7749V14.8057C14.7749 17.2116 14.0757 19.0726 12.6774 20.3887C11.2791 21.6842 9.50034 22.332 7.34117 22.332C5.20256 22.332 3.44439 21.6945 2.06663 20.4196C0.688877 19.1241 0 17.2733 0 14.8674V13.757H4.44172V14.744C4.44172 17.006 5.4082 18.137 7.34117 18.137C9.33583 18.137 10.3332 16.9855 10.3332 14.6823V0.370142Z" fill="#FB5607"/>
<path d="M33.8054 21.9618L31.9856 16.8723H23.2564L21.4056 21.9618H16.748L24.8295 0.370142H30.4124L38.4939 21.9618H33.8054ZM24.7678 12.6774H30.4433L27.6055 4.8427L24.7678 12.6774Z" fill="#FB5607"/>
<path d="M57.6717 0.370142H62.7612V21.9618H58.3503V6.4775L52.3355 15.5768H51.9345L45.9505 6.4775V21.9618H41.5396V0.370142H46.5982L52.1504 8.66751L57.6717 0.370142Z" fill="#FB5607"/>
<path d="M81.9156 4.5651H71.8292V8.91428H81.0828V13.1092H71.8292V17.7669H81.9156V21.9618H67.4183V0.370142H81.9156V4.5651Z" fill="#FB5607"/>
<path d="M93.1736 8.7909C94.757 9.11991 96.0319 9.44893 96.9984 9.77794C97.9649 10.107 98.8491 10.5285 99.6511 11.0426C100.453 11.5361 101.019 12.153 101.348 12.8933C101.697 13.6336 101.872 14.5281 101.872 15.5768C101.872 16.7695 101.615 17.8286 101.101 18.7539C100.607 19.6587 99.939 20.3579 99.0959 20.8514C98.2734 21.3449 97.3994 21.7151 96.4741 21.9618C95.5693 22.2086 94.6336 22.332 93.6671 22.332C90.7266 22.332 88.4851 21.6431 86.9429 20.2653C85.4212 18.867 84.5267 17.1191 84.2593 15.0216H88.7011C89.0095 16.1321 89.5339 16.9443 90.2742 17.4584C91.035 17.9725 92.1557 18.2295 93.6363 18.2295C94.8701 18.2295 95.8057 18.0136 96.4432 17.5818C97.1012 17.15 97.4303 16.5433 97.4303 15.7619C97.4303 15.2684 97.2452 14.8777 96.875 14.5898C96.5255 14.2813 96.0936 14.0552 95.5795 13.9112C95.0655 13.7673 94.1504 13.5513 92.8343 13.2635C92.7315 13.2429 92.6492 13.2326 92.5875 13.2326C92.5464 13.212 92.4744 13.1915 92.3716 13.1709C92.2894 13.1504 92.2071 13.1298 92.1249 13.1092C91.0144 12.883 90.0788 12.6363 89.318 12.3689C88.5571 12.1016 87.8065 11.7315 87.0663 11.2585C86.326 10.7856 85.7605 10.1789 85.3698 9.43865C84.9996 8.69836 84.8146 7.81413 84.8146 6.78595C84.8146 4.64735 85.6165 2.98171 87.2205 1.78902C88.8244 0.596341 90.7368 0 92.9577 0C95.6721 0 97.7284 0.627187 99.1267 1.88156C100.546 3.11537 101.389 4.71932 101.656 6.69342H97.1835C96.6488 4.96608 95.2505 4.10242 92.9885 4.10242C91.7342 4.10242 90.7985 4.3389 90.1816 4.81186C89.5647 5.26425 89.2563 5.8606 89.2563 6.60088C89.2563 7.19722 89.5133 7.62906 90.0274 7.89638C90.562 8.16371 91.6108 8.46188 93.1736 8.7909Z" fill="#FB5607"/>
<path d="M128.624 0.370142H133.035V21.9618H128.624V13.0167H119.031V21.9618H114.62V0.370142H119.031V8.82174H128.624V0.370142Z" fill="#FB5607"/>
<path d="M155.922 0.370142L148.304 14.8366V21.9618H143.862L143.893 14.8674L136.243 0.370142H141.209L146.083 9.90132L150.956 0.370142H155.922Z" fill="#FB5607"/>
<path d="M168.209 0.370142C170.553 0.370142 172.414 1.01789 173.792 2.31339C175.191 3.60889 175.89 5.37735 175.89 7.61878C175.89 9.88076 175.191 11.6801 173.792 13.0167C172.394 14.3328 170.533 14.9908 168.209 14.9908H163.552V21.9618H159.141V0.370142H168.209ZM168.024 10.7958C169.135 10.7958 169.978 10.5182 170.553 9.96301C171.129 9.4078 171.417 8.64695 171.417 7.68047C171.417 6.69342 171.129 5.93257 170.553 5.39792C169.978 4.8427 169.135 4.5651 168.024 4.5651H163.552V10.7958H168.024Z" fill="#FB5607"/>
<path d="M194.121 4.5651H184.035V8.91428H193.288V13.1092H184.035V17.7669H194.121V21.9618H179.624V0.370142H194.121V4.5651Z" fill="#FB5607"/>
<path d="M207.779 12.9653H209.642V18.3247C209.642 19.5499 209.3 20.4881 208.614 21.1393C207.929 21.7905 207.033 22.1161 205.928 22.1161C204.823 22.1161 203.927 21.7905 203.242 21.1393C202.556 20.4881 202.214 19.5499 202.214 18.3247V12.9653H204.077V18.2218C204.077 19.6527 204.694 20.3682 205.928 20.3682C207.162 20.3682 207.779 19.6527 207.779 18.2218V12.9653Z" fill="#FB5607"/>
<path d="M219.045 21.9618H216.745L213.364 17.7592V21.9618H211.527V12.9653H213.364V16.9495L216.565 12.9653H218.839L215.305 17.3222L219.045 21.9618Z" fill="#FB5607"/>
<path d="M453.487 12.9653H455.325V21.9618H453.204L449.297 15.6643L449.464 18.1961V21.9618H447.626V12.9653H449.734L453.654 19.2629L453.487 16.731V12.9653Z" fill="white"/>
<path d="M459.055 20.2139H462.91V21.9618H457.217V12.9653H459.055V20.2139Z" fill="white"/>
<path d="M305.422 0.370094H309.956L304.497 21.9618H299.037L297.063 14.1579L295.521 5.58294H294.935L293.392 14.1579L291.418 21.9618H285.959L280.499 0.370094H285.033L287.624 10.7033L288.735 17.1499L289.845 10.7033L292.436 0.370094H298.019L300.579 10.7033L301.72 17.2116L302.831 10.7033L305.422 0.370094Z" fill="white"/>
<path d="M327.653 4.56505H317.567V8.91423H326.821V13.1092H317.567V17.7668H327.653V21.9618H313.156V0.370094H327.653V4.56505Z" fill="white"/>
<path d="M338.973 0.370094C342.119 0.370094 344.741 1.39827 346.839 3.45462C348.957 5.51097 350.016 8.08141 350.016 11.1659C350.016 14.2505 348.957 16.8209 346.839 18.8772C344.741 20.9336 342.119 21.9618 338.973 21.9618H331.169V0.370094H338.973ZM338.973 17.7668C340.927 17.7668 342.52 17.1499 343.754 15.9161C344.988 14.6823 345.605 13.0989 345.605 11.1659C345.605 9.23296 344.988 7.64957 343.754 6.41576C342.52 5.18195 340.927 4.56505 338.973 4.56505H335.58V17.7668H338.973Z" fill="white"/>
<path d="M368.103 21.9618L366.283 16.8723H357.554L355.703 21.9618H351.045L359.127 0.370094H364.71L372.791 21.9618H368.103ZM359.065 12.6773H364.741L361.903 4.84266L359.065 12.6773Z" fill="white"/>
<path d="M391.969 0.370094H397.059V21.9618H392.648V6.47745L386.633 15.5768H386.232L380.248 6.47745V21.9618H375.837V0.370094H380.896L386.448 8.66747L391.969 0.370094Z" fill="white"/>
<path d="M415.627 0.370094H420.038V21.9618H414.948L405.571 6.8476L405.972 12.9241V21.9618H401.562V0.370094H406.62L416.028 15.4843L415.627 9.40775V0.370094Z" fill="white"/>
<path d="M428.928 17.7668H439.508V21.9618H423.406V17.7668L433.894 4.56505H423.9V0.370094H439.415L439.446 4.56505L428.928 17.7668Z" fill="white"/>
<circle cx="247.244" cy="11.4063" r="6.26544" fill="white"/>
<path d="M132.564 92.1581C133.372 92.4067 133.982 92.8556 134.393 93.5048C134.804 94.1401 135.01 94.8998 135.01 95.7838C135.01 97.0959 134.54 98.1249 133.6 98.8708C132.674 99.6028 131.411 99.9688 129.809 99.9688H123V85.4661H129.765C131.22 85.4661 132.366 85.7907 133.203 86.4398C134.055 87.089 134.481 88.0213 134.481 89.2368C134.481 90.5766 133.842 91.5503 132.564 92.1581ZM131.308 89.734C131.308 89.2092 131.146 88.8363 130.823 88.6153C130.515 88.3943 130.022 88.2838 129.347 88.2838H126.151V91.205H129.435C130.683 91.205 131.308 90.7147 131.308 89.734ZM129.743 97.1512C130.507 97.1512 131.043 97.013 131.352 96.7368C131.66 96.4606 131.815 96.06 131.815 95.5351C131.815 94.9827 131.66 94.5752 131.352 94.3128C131.043 94.0503 130.5 93.9191 129.721 93.9191H126.151V97.1512H129.743Z" fill="#FB5607"/>
<path d="M140.677 97.1512H147.289V99.9688H137.526V85.4661H140.677V97.1512Z" fill="#FB5607"/>
<path d="M160.706 99.9688L159.406 96.5503H153.17L151.847 99.9688H148.52L154.293 85.4661H158.282L164.056 99.9688H160.706ZM154.249 93.7327H158.304L156.277 88.4702L154.249 93.7327Z" fill="#FB5607"/>
<path d="M172.842 100.217C170.551 100.217 168.648 99.5061 167.135 98.0835C165.622 96.647 164.865 94.8584 164.865 92.7175C164.865 90.5766 165.622 88.7948 167.135 87.3722C168.648 85.9357 170.551 85.2175 172.842 85.2175C174.664 85.2175 176.243 85.7009 177.58 86.6677C178.932 87.6208 179.835 88.8777 180.291 90.4385H176.919C176.552 89.6788 176.008 89.0918 175.289 88.6774C174.583 88.2492 173.761 88.0351 172.82 88.0351C171.41 88.0351 170.257 88.4771 169.361 89.3611C168.479 90.2313 168.038 91.3501 168.038 92.7175C168.038 94.0849 168.479 95.2106 169.361 96.0945C170.257 96.9647 171.41 97.3998 172.82 97.3998C173.761 97.3998 174.583 97.1926 175.289 96.7782C176.008 96.3501 176.552 95.7561 176.919 94.9965H180.291C179.835 96.5572 178.932 97.8211 177.58 98.7879C176.243 99.7409 174.664 100.217 172.842 100.217Z" fill="#FB5607"/>
<path d="M195.696 99.9688H191.752L185.956 93.194V99.9688H182.805V85.4661H185.956V91.8887L191.443 85.4661H195.344L189.284 92.4896L195.696 99.9688Z" fill="#FB5607"/>
<path d="M211 85.4661L205.557 95.1829V99.9688H202.384L202.406 95.2037L196.941 85.4661H200.488L203.97 91.868L207.452 85.4661H211Z" fill="#FB5607"/>
<path d="M11.9856 99.9647L10.7068 96.4885H4.57315L3.27273 99.9647H0L5.67851 85.2175H9.60145L15.28 99.9647H11.9856ZM5.63516 93.6234H9.62312L7.62914 88.2722L5.63516 93.6234Z" fill="white"/>
<path d="M20.5844 97.0995H28.0185V99.9647H16.7048V97.0995L24.0739 88.0826H17.0516V85.2175H27.9535L27.9752 88.0826L20.5844 97.0995Z" fill="white"/>
<path d="M30.4607 99.9647V85.2175H33.56V99.9647H30.4607Z" fill="white"/>
<path d="M39.8876 97.0995H47.3216V99.9647H36.008V97.0995L43.377 88.0826H36.3547V85.2175H47.2566L47.2783 88.0826L39.8876 97.0995Z" fill="white"/>
<path d="M50.3057 97.1416C50.6813 96.8045 51.1437 96.636 51.6928 96.636C52.2418 96.636 52.697 96.8045 53.0582 97.1416C53.4339 97.4787 53.6217 97.9071 53.6217 98.4267C53.6217 98.9464 53.4339 99.3748 53.0582 99.7118C52.697 100.049 52.2418 100.217 51.6928 100.217C51.1437 100.217 50.6813 100.049 50.3057 99.7118C49.9444 99.3748 49.7638 98.9464 49.7638 98.4267C49.7638 97.9071 49.9444 97.4787 50.3057 97.1416Z" fill="white"/>
<path d="M71.5907 85.2175H74.7768L70.9405 99.9647H67.1043L65.7172 94.6346L64.6335 88.7779H64.2217L63.138 94.6346L61.7509 99.9647H57.9146L54.0784 85.2175H57.2644L59.085 92.2751L59.8653 96.6781L60.6455 92.2751L62.4661 85.2175H66.3891L68.188 92.2751L68.9899 96.7203L69.7702 92.2751L71.5907 85.2175Z" fill="white"/>
<path d="M86.5312 99.9647L85.2525 96.4885H79.1188L77.8184 99.9647H74.5456L80.2242 85.2175H84.1471L89.8256 99.9647H86.5312ZM80.1808 93.6234H84.1688L82.1748 88.2722L80.1808 93.6234Z" fill="white"/>
<path d="M99.7273 85.2175H103L97.9934 99.9647H94.0921L89.1288 85.2175H92.4016L96.0427 96.4043L99.7273 85.2175Z" fill="white"/>
<path d="M238.002 91.5545H246.306V99.9523H243.661V97.3445C243.299 98.1991 242.664 98.8915 241.753 99.4219C240.857 99.9523 239.787 100.217 238.544 100.217C236.405 100.217 234.613 99.4661 233.168 97.9633C231.723 96.4458 231 94.5379 231 92.2396C231 89.9265 231.737 88.0112 233.211 86.4937C234.7 84.9762 236.579 84.2175 238.848 84.2175C240.64 84.2175 242.194 84.7184 243.509 85.7202C244.839 86.7073 245.728 88.0038 246.176 89.6097H242.859C242.497 88.8584 241.963 88.2764 241.254 87.8639C240.561 87.4366 239.751 87.223 238.826 87.223C237.424 87.223 236.29 87.6944 235.423 88.6374C234.555 89.5803 234.122 90.7957 234.122 92.2838C234.122 93.7276 234.534 94.9283 235.358 95.886C236.196 96.8289 237.338 97.3003 238.783 97.3003C239.838 97.3003 240.756 97.0278 241.536 96.4827C242.317 95.9375 242.837 95.1788 243.097 94.2064H238.002V91.5545Z" fill="white"/>
<path d="M252.598 96.9467H259.102V99.9523H249.498V84.4827H252.598V96.9467Z" fill="white"/>
<path d="M272.302 99.9523L271.023 96.3059H264.888L263.587 99.9523H260.313L265.993 84.4827H269.917L275.597 99.9523H272.302ZM265.95 93.3003H269.939L267.944 87.6871L265.95 93.3003Z" fill="white"/>
<path d="M283.331 84.4827C285.542 84.4827 287.385 85.2193 288.859 86.6926C290.348 88.1659 291.092 90.0075 291.092 92.2175C291.092 94.4274 290.348 96.269 288.859 97.7423C287.385 99.2156 285.542 99.9523 283.331 99.9523H277.846V84.4827H283.331ZM283.331 96.9467C284.704 96.9467 285.824 96.5048 286.691 95.6208C287.559 94.7368 287.992 93.6024 287.992 92.2175C287.992 90.8326 287.559 89.6981 286.691 88.8142C285.824 87.9302 284.704 87.4882 283.331 87.4882H280.946V96.9467H283.331Z" fill="white"/>
<path d="M299.231 84.4827C301.442 84.4827 303.285 85.2193 304.759 86.6926C306.248 88.1659 306.992 90.0075 306.992 92.2175C306.992 94.4274 306.248 96.269 304.759 97.7423C303.285 99.2156 301.442 99.9523 299.231 99.9523H293.746V84.4827H299.231ZM299.231 96.9467C300.604 96.9467 301.724 96.5048 302.591 95.6208C303.458 94.7368 303.892 93.6024 303.892 92.2175C303.892 90.8326 303.458 89.6981 302.591 88.8142C301.724 87.9302 300.604 87.4882 299.231 87.4882H296.846V96.9467H299.231Z" fill="white"/>
<path d="M319.835 87.4882H312.746V90.6042H319.25V93.6097H312.746V96.9467H319.835V99.9523H309.646V84.4827H319.835V87.4882Z" fill="white"/>
<path d="M331.212 99.9523L327.288 94.3832H325.576V99.9523H322.475V84.4827H329.001C330.62 84.4827 331.884 84.9394 332.795 85.8528C333.72 86.7515 334.182 87.9744 334.182 89.5213C334.182 90.7589 333.886 91.7681 333.294 92.549C332.701 93.3298 331.863 93.8602 330.779 94.1401L335.028 99.9523H331.212ZM325.576 87.4882V91.6208H328.654C329.449 91.6208 330.042 91.444 330.432 91.0904C330.837 90.7221 331.039 90.2138 331.039 89.5655C331.039 88.9173 330.837 88.409 330.432 88.0407C330.027 87.6723 329.435 87.4882 328.654 87.4882H325.576Z" fill="white"/>
<path d="M340.564 96.9467H348V99.9523H336.683V96.9467L344.054 87.4882H337.03V84.4827H347.935L347.957 87.4882L340.564 96.9467Z" fill="white"/>
<path d="M378 99.9523V84.4827H381.097V99.9523H378Z" fill="#FB5607"/>
<path d="M390.712 91.5545H399.007V99.9523H396.365V97.3445C396.004 98.1991 395.368 98.8915 394.459 99.4219C393.563 99.9523 392.495 100.217 391.253 100.217C389.116 100.217 387.326 99.4661 385.882 97.9633C384.438 96.4458 383.716 94.5379 383.716 92.2396C383.716 89.9265 384.453 88.0112 385.926 86.4937C387.413 84.9762 389.29 84.2175 391.557 84.2175C393.347 84.2175 394.899 84.7184 396.213 85.7202C397.541 86.7073 398.429 88.0038 398.877 89.6097H395.563C395.202 88.8584 394.668 88.2764 393.961 87.8639C393.267 87.4366 392.459 87.223 391.535 87.223C390.134 87.223 389.001 87.6944 388.135 88.6374C387.268 89.5803 386.835 90.7957 386.835 92.2838C386.835 93.7276 387.247 94.9283 388.07 95.886C388.907 96.8289 390.048 97.3003 391.492 97.3003C392.546 97.3003 393.462 97.0278 394.242 96.4827C395.022 95.9375 395.542 95.1788 395.801 94.2064H390.712V91.5545Z" fill="#FB5607"/>
<path d="M411.963 84.4827H415.06V99.9523H411.487L404.903 89.1235L405.184 93.4771V99.9523H402.087V84.4827H405.639L412.245 95.3114L411.963 90.9578V84.4827Z" fill="#FB5607"/>
<path d="M418.249 99.9523V84.4827H421.346V99.9523H418.249Z" fill="#FB5607"/>
<path d="M435.4 84.4827V87.4882H431.025V99.9523H427.928V87.4882H423.575V84.4827H435.4Z" fill="#FB5607"/>
<path d="M447.822 87.4882H440.74V90.6042H447.238V93.6097H440.74V96.9467H447.822V99.9523H437.643V84.4827H447.822V87.4882Z" fill="#FB5607"/>
<path d="M459.188 99.9523L455.268 94.3832H453.557V99.9523H450.46V84.4827H456.979C458.596 84.4827 459.86 84.9394 460.769 85.8528C461.693 86.7515 462.155 87.9744 462.155 89.5213C462.155 90.7589 461.859 91.7681 461.267 92.549C460.675 93.3298 459.838 93.8602 458.755 94.1401L463 99.9523H459.188ZM453.557 87.4882V91.6208H456.633C457.427 91.6208 458.019 91.444 458.409 91.0904C458.813 90.7221 459.015 90.2138 459.015 89.5655C459.015 88.9173 458.813 88.409 458.409 88.0407C458.004 87.6723 457.412 87.4882 456.633 87.4882H453.557Z" fill="#FB5607"/>
<circle cx="113" cy="92.2175" r="4" fill="white"/>
<circle cx="221" cy="92.2175" r="4" fill="white"/>
<circle cx="363" cy="92.2175" r="4" fill="white"/>
<path d="M4.87551 133.45C6.84113 133.45 8.47914 134.094 9.78956 135.383C11.1128 136.672 11.7744 138.284 11.7744 140.217C11.7744 142.151 11.1128 143.763 9.78956 145.052C8.47914 146.341 6.84113 146.985 4.87551 146.985H0V133.45H4.87551ZM4.87551 144.356C6.09599 144.356 7.09165 143.969 7.86248 143.195C8.63331 142.422 9.01873 141.429 9.01873 140.217C9.01873 139.006 8.63331 138.013 7.86248 137.24C7.09165 136.466 6.09599 136.079 4.87551 136.079H2.75572V144.356H4.87551Z" fill="white"/>
<path d="M21.8993 146.985L18.4113 142.112H16.8889V146.985H14.1332V133.45H19.9337C21.3726 133.45 22.4967 133.849 23.3061 134.648C24.1283 135.435 24.5394 136.505 24.5394 137.858C24.5394 138.941 24.276 139.824 23.7493 140.508C23.2225 141.191 22.4774 141.655 21.5139 141.9L25.2909 146.985H21.8993ZM16.8889 136.079V139.695H19.6253C20.3319 139.695 20.8587 139.541 21.2055 139.231C21.5653 138.909 21.7451 138.464 21.7451 137.897C21.7451 137.33 21.5653 136.885 21.2055 136.563C20.8458 136.24 20.3191 136.079 19.6253 136.079H16.8889Z" fill="white"/>
<path d="M27.7507 144.394C28.0847 144.085 28.4958 143.93 28.984 143.93C29.4722 143.93 29.8769 144.085 30.1981 144.394C30.5321 144.704 30.6991 145.097 30.6991 145.574C30.6991 146.051 30.5321 146.444 30.1981 146.753C29.8769 147.063 29.4722 147.217 28.984 147.217C28.4958 147.217 28.0847 147.063 27.7507 146.753C27.4295 146.444 27.2689 146.051 27.2689 145.574C27.2689 145.097 27.4295 144.704 27.7507 144.394Z" fill="white"/>
<path d="M38.4479 138.729C39.4372 138.935 40.2337 139.141 40.8375 139.347C41.4413 139.554 41.9937 139.818 42.4948 140.14C42.9958 140.45 43.3491 140.836 43.5547 141.3C43.7731 141.764 43.8823 142.325 43.8823 142.983C43.8823 143.73 43.7217 144.394 43.4005 144.974C43.0922 145.542 42.6746 145.98 42.1479 146.289C41.634 146.599 41.088 146.831 40.5099 146.985C39.9446 147.14 39.3601 147.217 38.7563 147.217C36.9191 147.217 35.5188 146.786 34.5552 145.922C33.6045 145.045 33.0457 143.95 32.8787 142.635H35.6537C35.8464 143.331 36.174 143.84 36.6365 144.162C37.1118 144.485 37.812 144.646 38.737 144.646C39.5078 144.646 40.0924 144.51 40.4906 144.24C40.9017 143.969 41.1073 143.589 41.1073 143.099C41.1073 142.789 40.9917 142.544 40.7604 142.364C40.542 142.171 40.2722 142.029 39.951 141.938C39.6299 141.848 39.0582 141.713 38.2359 141.532C38.1717 141.519 38.1203 141.513 38.0818 141.513C38.0561 141.5 38.0111 141.487 37.9469 141.474C37.8955 141.461 37.8441 141.449 37.7927 141.436C37.099 141.294 36.5144 141.139 36.0391 140.972C35.5637 140.804 35.0948 140.572 34.6323 140.275C34.1698 139.979 33.8165 139.599 33.5724 139.135C33.3412 138.671 33.2255 138.116 33.2255 137.472C33.2255 136.131 33.7266 135.087 34.7287 134.339C35.7307 133.591 36.9255 133.217 38.313 133.217C40.0089 133.217 41.2936 133.611 42.1672 134.397C43.0536 135.171 43.5804 136.176 43.7474 137.414H40.9531C40.6191 136.331 39.7455 135.789 38.3323 135.789C37.5486 135.789 36.9641 135.938 36.5787 136.234C36.1932 136.518 36.0005 136.892 36.0005 137.356C36.0005 137.729 36.1611 138 36.4823 138.168C36.8163 138.335 37.4715 138.522 38.4479 138.729Z" fill="white"/>
<path d="M54.8181 133.45H57.5739V146.985H54.8181V141.378H48.8249V146.985H46.0692V133.45H48.8249V138.748H54.8181V133.45Z" fill="white"/>
<path d="M70.2352 146.985L69.0983 143.795H63.6446L62.4884 146.985H59.5785L64.6274 133.45H68.1154L73.1644 146.985H70.2352ZM64.5889 141.165H68.1347L66.3618 136.253L64.5889 141.165Z" fill="white"/>
<path d="M80.0391 133.45C82.0047 133.45 83.6427 134.094 84.9531 135.383C86.2764 136.672 86.938 138.284 86.938 140.217C86.938 142.151 86.2764 143.763 84.9531 145.052C83.6427 146.341 82.0047 146.985 80.0391 146.985H75.1636V133.45H80.0391ZM80.0391 144.356C81.2596 144.356 82.2552 143.969 83.0261 143.195C83.7969 142.422 84.1823 141.429 84.1823 140.217C84.1823 139.006 83.7969 138.013 83.0261 137.24C82.2552 136.466 81.2596 136.079 80.0391 136.079H77.9193V144.356H80.0391Z" fill="white"/>
<path d="M90.7228 135.229C92.0717 133.888 93.7419 133.217 95.7332 133.217C97.7245 133.217 99.3946 133.888 100.744 135.229C102.093 136.569 102.767 138.232 102.767 140.217C102.767 142.203 102.093 143.866 100.744 145.206C99.3946 146.547 97.7245 147.217 95.7332 147.217C93.7419 147.217 92.0717 146.547 90.7228 145.206C89.3867 143.866 88.7186 142.203 88.7186 140.217C88.7186 138.232 89.3867 136.569 90.7228 135.229ZM98.7587 137.085C97.9622 136.26 96.9537 135.847 95.7332 135.847C94.5127 135.847 93.4978 136.26 92.6884 137.085C91.8919 137.91 91.4936 138.954 91.4936 140.217C91.4936 141.481 91.8919 142.525 92.6884 143.35C93.4978 144.175 94.5127 144.588 95.7332 144.588C96.9537 144.588 97.9622 144.175 98.7587 143.35C99.5681 142.525 99.9728 141.481 99.9728 140.217C99.9728 138.954 99.5681 137.91 98.7587 137.085Z" fill="white"/>
<path d="M119.167 133.45H122L118.589 146.985H115.178L113.945 142.093L112.981 136.717H112.615L111.652 142.093L110.418 146.985H107.007L103.596 133.45H106.429L108.048 139.927L108.742 143.969L109.435 139.927L111.054 133.45H114.542L116.142 139.927L116.855 144.008L117.548 139.927L119.167 133.45Z" fill="white"/>
<path d="M143.738 144.356H149.483V146.985H141V133.45H143.738V144.356Z" fill="#FB5607"/>
<path d="M160.471 136.079H154.21V138.806H159.954V141.436H154.21V144.356H160.471V146.985H151.472V133.45H160.471V136.079Z" fill="#FB5607"/>
<path d="M167.46 138.729C168.443 138.935 169.234 139.141 169.834 139.347C170.434 139.554 170.983 139.818 171.481 140.14C171.979 140.45 172.33 140.836 172.534 141.3C172.751 141.764 172.86 142.325 172.86 142.983C172.86 143.73 172.7 144.394 172.381 144.974C172.075 145.542 171.66 145.98 171.137 146.289C170.626 146.599 170.083 146.831 169.509 146.985C168.947 147.14 168.366 147.217 167.766 147.217C165.941 147.217 164.55 146.786 163.592 145.922C162.647 145.045 162.092 143.95 161.926 142.635H164.684C164.875 143.331 165.201 143.84 165.66 144.162C166.132 144.485 166.828 144.646 167.747 144.646C168.513 144.646 169.094 144.51 169.49 144.24C169.898 143.969 170.103 143.589 170.103 143.099C170.103 142.789 169.988 142.544 169.758 142.364C169.541 142.171 169.273 142.029 168.954 141.938C168.634 141.848 168.066 141.713 167.249 141.532C167.186 141.519 167.135 141.513 167.096 141.513C167.071 141.5 167.026 141.487 166.962 141.474C166.911 141.461 166.86 141.449 166.809 141.436C166.12 141.294 165.539 141.139 165.067 140.972C164.594 140.804 164.128 140.572 163.669 140.275C163.209 139.979 162.858 139.599 162.616 139.135C162.386 138.671 162.271 138.116 162.271 137.472C162.271 136.131 162.769 135.087 163.764 134.339C164.76 133.591 165.947 133.217 167.326 133.217C169.011 133.217 170.288 133.611 171.156 134.397C172.036 135.171 172.56 136.176 172.726 137.414H169.949C169.617 136.331 168.749 135.789 167.345 135.789C166.566 135.789 165.986 135.938 165.603 136.234C165.22 136.518 165.028 136.892 165.028 137.356C165.028 137.729 165.188 138 165.507 138.168C165.839 138.335 166.49 138.522 167.46 138.729Z" fill="#FB5607"/>
<path d="M184.403 146.985L183.274 143.795H177.855L176.706 146.985H173.815L178.831 133.45H182.297L187.314 146.985H184.403ZM178.793 141.165H182.316L180.555 136.253L178.793 141.165Z" fill="#FB5607"/>
<path d="M194.145 133.45C196.098 133.45 197.726 134.094 199.028 135.383C200.343 136.672 201 138.284 201 140.217C201 142.151 200.343 143.763 199.028 145.052C197.726 146.341 196.098 146.985 194.145 146.985H189.3V133.45H194.145ZM194.145 144.356C195.358 144.356 196.347 143.969 197.113 143.195C197.879 142.422 198.262 141.429 198.262 140.217C198.262 139.006 197.879 138.013 197.113 137.24C196.347 136.466 195.358 136.079 194.145 136.079H192.039V144.356H194.145Z" fill="#FB5607"/>
<path d="M231.094 133.217H234.278V147.217H231.518V137.177L227.755 143.077H227.504L223.76 137.177V147.217H221V133.217H224.165L227.639 138.597L231.094 133.217Z" fill="white"/>
<path d="M246.938 147.217L245.799 143.917H240.338L239.18 147.217H236.265L241.322 133.217H244.815L249.871 147.217H246.938ZM241.283 141.197H244.834L243.059 136.117L241.283 141.197Z" fill="white"/>
<path d="M259.651 147.217L256.158 142.177H254.633V147.217H251.874V133.217H257.683C259.124 133.217 260.249 133.631 261.06 134.457C261.883 135.271 262.295 136.377 262.295 137.777C262.295 138.897 262.031 139.811 261.504 140.517C260.976 141.224 260.23 141.704 259.265 141.957L263.048 147.217H259.651ZM254.633 135.937V139.677H257.374C258.081 139.677 258.609 139.517 258.956 139.197C259.317 138.864 259.497 138.404 259.497 137.817C259.497 137.231 259.317 136.771 258.956 136.437C258.596 136.104 258.069 135.937 257.374 135.937H254.633Z" fill="white"/>
<path d="M264.727 147.217V133.217H267.487V147.217H264.727Z" fill="white"/>
<path d="M280.146 147.217L279.008 143.917H273.546L272.388 147.217H269.474L274.53 133.217H278.023L283.08 147.217H280.146ZM274.492 141.197H278.043L276.267 136.117L274.492 141.197Z" fill="white"/>
<path d="M295.079 133.217H298.263V147.217H295.503V137.177L291.74 143.077H291.489L287.745 137.177V147.217H284.985V133.217H288.15L291.624 138.597L295.079 133.217Z" fill="white"/>
<path d="M316.709 147.217L315.571 143.917H310.109L308.951 147.217H306.037L311.093 133.217H314.586L319.643 147.217H316.709ZM311.055 141.197H314.606L312.83 136.117L311.055 141.197Z" fill="white"/>
<path d="M329.423 147.217L325.929 142.177H324.405V147.217H321.645V133.217H327.454C328.895 133.217 330.021 133.631 330.831 134.457C331.655 135.271 332.067 136.377 332.067 137.777C332.067 138.897 331.803 139.811 331.275 140.517C330.748 141.224 330.002 141.704 329.037 141.957L332.819 147.217H329.423ZM324.405 135.937V139.677H327.145C327.853 139.677 328.38 139.517 328.728 139.197C329.088 138.864 329.268 138.404 329.268 137.817C329.268 137.231 329.088 136.771 328.728 136.437C328.368 136.104 327.84 135.937 327.145 135.937H324.405Z" fill="white"/>
<path d="M344.546 147.217L343.408 143.917H337.946L336.788 147.217H333.874L338.93 133.217H342.423L347.48 147.217H344.546ZM338.892 141.197H342.443L340.667 136.117L338.892 141.197Z" fill="white"/>
<path d="M357.858 139.677C358.565 139.917 359.099 140.351 359.46 140.977C359.82 141.591 360 142.324 360 143.177C360 144.444 359.588 145.437 358.765 146.157C357.954 146.864 356.848 147.217 355.445 147.217H349.482V133.217H355.407C356.681 133.217 357.684 133.531 358.417 134.157C359.164 134.784 359.537 135.684 359.537 136.857C359.537 138.151 358.977 139.091 357.858 139.677ZM356.758 137.337C356.758 136.831 356.616 136.471 356.333 136.257C356.063 136.044 355.632 135.937 355.04 135.937H352.242V138.757H355.117C356.211 138.757 356.758 138.284 356.758 137.337ZM355.387 144.497C356.057 144.497 356.526 144.364 356.796 144.097C357.066 143.831 357.202 143.444 357.202 142.937C357.202 142.404 357.066 142.011 356.796 141.757C356.526 141.504 356.05 141.377 355.368 141.377H352.242V144.497H355.387Z" fill="white"/>
<path d="M388.13 133.45H391.327V146.985H388.557V137.278L384.779 142.983H384.528L380.77 137.278V146.985H378V133.45H381.177L384.663 138.651L388.13 133.45Z" fill="#FB5607"/>
<path d="M403.355 136.079H397.021V138.806H402.832V141.436H397.021V144.356H403.355V146.985H394.251V133.45H403.355V136.079Z" fill="#FB5607"/>
<path d="M410.425 138.729C411.419 138.935 412.22 139.141 412.827 139.347C413.434 139.554 413.989 139.818 414.492 140.14C414.996 140.45 415.351 140.836 415.558 141.3C415.777 141.764 415.887 142.325 415.887 142.983C415.887 143.73 415.726 144.394 415.403 144.974C415.093 145.542 414.673 145.98 414.144 146.289C413.627 146.599 413.078 146.831 412.497 146.985C411.929 147.14 411.342 147.217 410.735 147.217C408.888 147.217 407.481 146.786 406.512 145.922C405.556 145.045 404.995 143.95 404.827 142.635H407.616C407.81 143.331 408.139 143.84 408.604 144.162C409.082 144.485 409.786 144.646 410.715 144.646C411.49 144.646 412.078 144.51 412.478 144.24C412.891 143.969 413.098 143.589 413.098 143.099C413.098 142.789 412.982 142.544 412.749 142.364C412.53 142.171 412.258 142.029 411.936 141.938C411.613 141.848 411.038 141.713 410.212 141.532C410.147 141.519 410.095 141.513 410.057 141.513C410.031 141.5 409.986 141.487 409.921 141.474C409.869 141.461 409.818 141.449 409.766 141.436C409.069 141.294 408.481 141.139 408.003 140.972C407.526 140.804 407.054 140.572 406.589 140.275C406.125 139.979 405.769 139.599 405.524 139.135C405.292 138.671 405.175 138.116 405.175 137.472C405.175 136.131 405.679 135.087 406.686 134.339C407.694 133.591 408.895 133.217 410.289 133.217C411.994 133.217 413.285 133.611 414.163 134.397C415.054 135.171 415.584 136.176 415.751 137.414H412.943C412.607 136.331 411.729 135.789 410.309 135.789C409.521 135.789 408.933 135.938 408.546 136.234C408.158 136.518 407.965 136.892 407.965 137.356C407.965 137.729 408.126 138 408.449 138.168C408.785 138.335 409.443 138.522 410.425 138.729Z" fill="#FB5607"/>
<path d="M426.879 133.45H429.649V146.985H426.879V141.378H420.855V146.985H418.085V133.45H420.855V138.748H426.879V133.45Z" fill="#FB5607"/>
<path d="M442.376 146.985L441.233 143.795H435.751L434.589 146.985H431.664L436.739 133.45H440.245L445.32 146.985H442.376ZM436.7 141.165H440.264L438.482 136.253L436.7 141.165Z" fill="#FB5607"/>
<path d="M455.135 146.985L451.63 142.112H450.099V146.985H447.329V133.45H453.16C454.606 133.45 455.736 133.849 456.549 134.648C457.376 135.435 457.789 136.505 457.789 137.858C457.789 138.941 457.524 139.824 456.995 140.508C456.466 141.191 455.717 141.655 454.748 141.9L458.545 146.985H455.135ZM450.099 136.079V139.695H452.85C453.56 139.695 454.09 139.541 454.438 139.231C454.8 138.909 454.981 138.464 454.981 137.897C454.981 137.33 454.8 136.885 454.438 136.563C454.077 136.24 453.547 136.079 452.85 136.079H450.099Z" fill="#FB5607"/>
<path d="M460.23 146.985V133.45H463V146.985H460.23Z" fill="#FB5607"/>
<circle cx="131.5" cy="140.717" r="2.5" fill="white"/>
<circle cx="211.5" cy="140.717" r="2.5" fill="white"/>
<ellipse cx="369" cy="140.717" rx="2" ry="2.5" fill="white"/>
<path d="M5.05221 109.466C7.08907 109.466 8.78646 110.157 10.1444 111.538C11.5156 112.919 12.2012 114.646 12.2012 116.717C12.2012 118.789 11.5156 120.516 10.1444 121.897C8.78646 123.278 7.08907 123.969 5.05221 123.969H0V109.466H5.05221ZM5.05221 121.151C6.31693 121.151 7.34867 120.737 8.14744 119.908C8.94621 119.079 9.3456 118.016 9.3456 116.717C9.3456 115.419 8.94621 114.356 8.14744 113.527C7.34867 112.698 6.31693 112.284 5.05221 112.284H2.8556V121.151H5.05221Z" fill="#FB5607"/>
<path d="M24.0309 112.284H17.501V115.205H23.4918V118.023H17.501V121.151H24.0309V123.969H14.6454V109.466H24.0309V112.284Z" fill="#FB5607"/>
<path d="M32.1781 109.466C33.6957 109.466 34.9005 109.901 35.7925 110.771C36.6978 111.642 37.1504 112.829 37.1504 114.335C37.1504 115.854 36.6978 117.063 35.7925 117.961C34.8872 118.845 33.6824 119.287 32.1781 119.287H29.1627V123.969H26.3071V109.466H32.1781ZM32.0582 116.469C32.7771 116.469 33.323 116.282 33.6957 115.909C34.0685 115.537 34.2549 115.025 34.2549 114.376C34.2549 113.713 34.0685 113.202 33.6957 112.843C33.323 112.47 32.7771 112.284 32.0582 112.284H29.1627V116.469H32.0582Z" fill="#FB5607"/>
<path d="M47.6633 123.969L46.4851 120.55H40.8338L39.6356 123.969H36.6203L41.8522 109.466H45.4666L50.6986 123.969H47.6633ZM41.8123 117.733H45.4866L43.6494 112.47L41.8123 117.733Z" fill="#FB5607"/>
<path d="M66.6208 109.466H69.5562L66.0217 123.969H62.4871L61.2091 118.727L60.2106 112.967H59.8312L58.8328 118.727L57.5547 123.969H54.0202L50.4856 109.466H53.4211L55.0985 116.407L55.8174 120.737L56.5363 116.407L58.2137 109.466H61.8281L63.4856 116.407L64.2244 120.778L64.9433 116.407L66.6208 109.466Z" fill="#FB5607"/>
<path d="M74.4835 121.151H80.4742V123.969H71.6279V109.466H74.4835V121.151Z" fill="#FB5607"/>
<path d="M83.5192 111.372C84.9171 109.936 86.6477 109.217 88.7112 109.217C90.7747 109.217 92.5054 109.936 93.9032 111.372C95.3011 112.809 96 114.59 96 116.717C96 118.845 95.3011 120.626 93.9032 122.063C92.5054 123.499 90.7747 124.217 88.7112 124.217C86.6477 124.217 84.9171 123.499 83.5192 122.063C82.1347 120.626 81.4424 118.845 81.4424 116.717C81.4424 114.59 82.1347 112.809 83.5192 111.372ZM91.8464 113.361C91.021 112.477 89.9759 112.035 88.7112 112.035C87.4465 112.035 86.3948 112.477 85.5561 113.361C84.7307 114.245 84.318 115.364 84.318 116.717C84.318 118.071 84.7307 119.19 85.5561 120.074C86.3948 120.958 87.4465 121.4 88.7112 121.4C89.9759 121.4 91.021 120.958 91.8464 120.074C92.6851 119.19 93.1045 118.071 93.1045 116.717C93.1045 115.364 92.6851 114.245 91.8464 113.361Z" fill="#FB5607"/>
<path d="M238.119 124.217C235.786 124.217 233.85 123.506 232.31 122.083C230.77 120.647 230 118.858 230 116.717C230 114.577 230.77 112.795 232.31 111.372C233.85 109.936 235.786 109.217 238.119 109.217C239.973 109.217 241.58 109.701 242.94 110.668C244.316 111.621 245.235 112.878 245.699 114.438H242.268C241.894 113.679 241.341 113.092 240.608 112.677C239.89 112.249 239.053 112.035 238.096 112.035C236.661 112.035 235.487 112.477 234.575 113.361C233.678 114.231 233.229 115.35 233.229 116.717C233.229 118.085 233.678 119.211 234.575 120.095C235.487 120.965 236.661 121.4 238.096 121.4C239.053 121.4 239.89 121.193 240.608 120.778C241.341 120.35 241.894 119.756 242.268 118.996H245.699C245.235 120.557 244.316 121.821 242.94 122.788C241.58 123.741 239.973 124.217 238.119 124.217Z" fill="#FB5607"/>
<path d="M258.439 109.466H261.646V123.969H258.439V117.961H251.465V123.969H248.258V109.466H251.465V115.143H258.439V109.466Z" fill="#FB5607"/>
<path d="M265.056 123.969V109.466H268.263V123.969H265.056Z" fill="#FB5607"/>
<path d="M274.855 121.151H281.583V123.969H271.648V109.466H274.855V121.151Z" fill="#FB5607"/>
<path d="M287.12 121.151H293.848V123.969H283.913V109.466H287.12V121.151Z" fill="#FB5607"/>
<path d="M301.676 115.122C302.827 115.343 303.754 115.564 304.457 115.785C305.159 116.006 305.802 116.289 306.385 116.635C306.968 116.966 307.38 117.38 307.619 117.878C307.873 118.375 308 118.976 308 119.68C308 120.481 307.813 121.193 307.439 121.814C307.08 122.422 306.595 122.892 305.982 123.223C305.384 123.554 304.748 123.803 304.075 123.969C303.417 124.135 302.737 124.217 302.034 124.217C299.896 124.217 298.267 123.755 297.145 122.829C296.039 121.89 295.389 120.716 295.194 119.307H298.424C298.648 120.053 299.029 120.599 299.567 120.944C300.121 121.289 300.935 121.462 302.012 121.462C302.909 121.462 303.589 121.317 304.053 121.027C304.531 120.737 304.771 120.329 304.771 119.804C304.771 119.473 304.636 119.211 304.367 119.017C304.113 118.81 303.799 118.658 303.425 118.561C303.051 118.465 302.386 118.32 301.429 118.126C301.354 118.112 301.294 118.106 301.249 118.106C301.22 118.092 301.167 118.078 301.092 118.064C301.033 118.05 300.973 118.037 300.913 118.023C300.106 117.871 299.425 117.705 298.872 117.525C298.319 117.346 297.773 117.097 297.235 116.78C296.697 116.462 296.286 116.054 296.002 115.557C295.732 115.06 295.598 114.466 295.598 113.775C295.598 112.339 296.181 111.22 297.347 110.419C298.513 109.618 299.904 109.217 301.519 109.217C303.492 109.217 304.987 109.639 306.004 110.481C307.036 111.31 307.649 112.387 307.843 113.713H304.591C304.202 112.553 303.186 111.973 301.541 111.973C300.629 111.973 299.949 112.132 299.5 112.45C299.052 112.753 298.827 113.154 298.827 113.651C298.827 114.052 299.014 114.342 299.388 114.521C299.777 114.701 300.539 114.901 301.676 115.122Z" fill="#FB5607"/>
<path d="M347.642 109.466C349.916 109.466 351.812 110.157 353.328 111.538C354.86 112.919 355.625 114.646 355.625 116.717C355.625 118.789 354.86 120.516 353.328 121.897C351.812 123.278 349.916 123.969 347.642 123.969H342V109.466H347.642ZM347.642 121.151C349.054 121.151 350.206 120.737 351.098 119.908C351.99 119.079 352.436 118.016 352.436 116.717C352.436 115.419 351.99 114.356 351.098 113.527C350.206 112.698 349.054 112.284 347.642 112.284H345.189V121.151H347.642Z" fill="white"/>
<path d="M364.755 109.466H367.966V119.162C367.966 120.778 367.461 122.028 366.45 122.912C365.439 123.782 364.153 124.217 362.592 124.217C361.046 124.217 359.774 123.789 358.778 122.933C357.782 122.063 357.284 120.82 357.284 119.204V118.458H360.496V119.121C360.496 120.64 361.194 121.4 362.592 121.4C364.034 121.4 364.755 120.626 364.755 119.079V109.466Z" fill="white"/>
<path d="M388.522 112.284H381.23V115.329H387.92V118.147H381.23V123.969H378.041V109.466H388.522V112.284Z" fill="white"/>
<path d="M400.051 123.969L396.015 118.748H394.253V123.969H391.064V109.466H397.776C399.441 109.466 400.742 109.894 401.679 110.751C402.63 111.593 403.106 112.74 403.106 114.19C403.106 115.35 402.801 116.296 402.192 117.028C401.582 117.76 400.72 118.258 399.605 118.52L403.976 123.969H400.051ZM394.253 112.284V116.158H397.42C398.237 116.158 398.847 115.992 399.248 115.661C399.664 115.316 399.873 114.839 399.873 114.231C399.873 113.624 399.664 113.147 399.248 112.802C398.832 112.456 398.222 112.284 397.42 112.284H394.253Z" fill="white"/>
<path d="M407.283 111.372C408.844 109.936 410.777 109.217 413.081 109.217C415.386 109.217 417.318 109.936 418.879 111.372C420.44 112.809 421.221 114.59 421.221 116.717C421.221 118.845 420.44 120.626 418.879 122.063C417.318 123.499 415.386 124.217 413.081 124.217C410.777 124.217 408.844 123.499 407.283 122.063C405.737 120.626 404.964 118.845 404.964 116.717C404.964 114.59 405.737 112.809 407.283 111.372ZM416.582 113.361C415.661 112.477 414.494 112.035 413.081 112.035C411.669 112.035 410.495 112.477 409.558 113.361C408.636 114.245 408.175 115.364 408.175 116.717C408.175 118.071 408.636 119.19 409.558 120.074C410.495 120.958 411.669 121.4 413.081 121.4C414.494 121.4 415.661 120.958 416.582 120.074C417.519 119.19 417.987 118.071 417.987 116.717C417.987 115.364 417.519 114.245 416.582 113.361Z" fill="white"/>
<path d="M426.569 121.151H434.218V123.969H422.578V121.151L430.16 112.284H422.935V109.466H434.151L434.174 112.284L426.569 121.151Z" fill="white"/>
<path d="M447.212 112.284H439.92V115.205H446.61V118.023H439.92V121.151H447.212V123.969H436.731V109.466H447.212V112.284Z" fill="white"/>
<path d="M459.811 109.466H463V123.969H459.321L452.541 113.817L452.831 117.898V123.969H449.642V109.466H453.3L460.101 119.618L459.811 115.537V109.466Z" fill="white"/>
<path d="M138.521 116.158C139.326 116.407 139.933 116.856 140.342 117.505C140.752 118.14 140.956 118.9 140.956 119.784C140.956 121.096 140.488 122.125 139.552 122.871C138.631 123.603 137.373 123.969 135.779 123.969H129V109.466H135.735C137.183 109.466 138.324 109.791 139.157 110.44C140.006 111.089 140.43 112.021 140.43 113.237C140.43 114.577 139.794 115.55 138.521 116.158ZM137.271 113.734C137.271 113.209 137.11 112.836 136.788 112.615C136.481 112.394 135.991 112.284 135.318 112.284H132.137V115.205H135.406C136.649 115.205 137.271 114.715 137.271 113.734ZM135.713 121.151C136.474 121.151 137.007 121.013 137.315 120.737C137.622 120.461 137.775 120.06 137.775 119.535C137.775 118.983 137.622 118.575 137.315 118.313C137.007 118.05 136.466 117.919 135.691 117.919H132.137V121.151H135.713Z" fill="white"/>
<path d="M143.461 123.969V109.466H146.598V123.969H143.461Z" fill="white"/>
<path d="M156.338 116.096H164.74V123.969H162.064V121.524C161.698 122.325 161.055 122.974 160.133 123.472C159.226 123.969 158.144 124.217 156.886 124.217C154.722 124.217 152.908 123.513 151.446 122.104C149.983 120.682 149.252 118.893 149.252 116.738C149.252 114.57 149.998 112.774 151.489 111.351C152.996 109.929 154.897 109.217 157.193 109.217C159.007 109.217 160.579 109.687 161.91 110.626C163.256 111.552 164.155 112.767 164.609 114.273H161.252C160.886 113.568 160.345 113.023 159.629 112.636C158.927 112.235 158.107 112.035 157.171 112.035C155.753 112.035 154.605 112.477 153.727 113.361C152.85 114.245 152.411 115.385 152.411 116.78C152.411 118.133 152.828 119.259 153.661 120.157C154.51 121.041 155.665 121.483 157.128 121.483C158.195 121.483 159.124 121.227 159.914 120.716C160.704 120.205 161.23 119.494 161.493 118.582H156.338V116.096Z" fill="white"/>
<path d="M174.398 116.096H182.801V123.969H180.124V121.524C179.759 122.325 179.115 122.974 178.194 123.472C177.287 123.969 176.205 124.217 174.947 124.217C172.782 124.217 170.969 123.513 169.506 122.104C168.044 120.682 167.312 118.893 167.312 116.738C167.312 114.57 168.058 112.774 169.55 111.351C171.056 109.929 172.958 109.217 175.254 109.217C177.067 109.217 178.64 109.687 179.971 110.626C181.316 111.552 182.216 112.767 182.669 114.273H179.312C178.947 113.568 178.406 113.023 177.689 112.636C176.987 112.235 176.168 112.035 175.232 112.035C173.813 112.035 172.665 112.477 171.788 113.361C170.91 114.245 170.471 115.385 170.471 116.78C170.471 118.133 170.888 119.259 171.722 120.157C172.57 121.041 173.726 121.483 175.188 121.483C176.256 121.483 177.184 121.227 177.974 120.716C178.764 120.205 179.291 119.494 179.554 118.582H174.398V116.096Z" fill="white"/>
<path d="M194.74 116.365C195.457 116.642 196.013 117.077 196.408 117.671C196.803 118.264 197 118.969 197 119.784C197 121.179 196.481 122.27 195.442 123.057C194.404 123.831 193.015 124.217 191.274 124.217C189.592 124.217 188.188 123.81 187.062 122.995C185.95 122.18 185.329 120.999 185.197 119.452H188.378C188.627 120.764 189.585 121.421 191.252 121.421C192.978 121.421 193.841 120.778 193.841 119.494C193.841 118.416 193.044 117.878 191.45 117.878H189.409V115.288H191.055C192.605 115.288 193.38 114.804 193.38 113.838C193.38 113.285 193.183 112.843 192.788 112.512C192.393 112.18 191.793 112.014 190.989 112.014C189.614 112.014 188.788 112.615 188.51 113.817H185.351C185.512 112.339 186.111 111.206 187.15 110.419C188.203 109.618 189.512 109.217 191.077 109.217C192.671 109.217 193.98 109.618 195.004 110.419C196.027 111.206 196.539 112.215 196.539 113.444C196.539 114.079 196.378 114.659 196.057 115.184C195.75 115.695 195.311 116.089 194.74 116.365Z" fill="white"/>
<circle cx="112" cy="117.217" r="3" fill="white"/>
<circle cx="214" cy="117.217" r="3" fill="white"/>
<circle cx="325" cy="117.217" r="3" fill="white"/>
<path d="M12.5222 78.8363L6.89809 70.8307H4.44336V78.8363H0V56.5987H9.35281C11.6729 56.5987 13.4855 57.2552 14.7905 58.5683C16.1163 59.8602 16.7791 61.618 16.7791 63.8418C16.7791 65.6208 16.3545 67.0715 15.5052 68.194C14.6558 69.3165 13.4544 70.0789 11.9008 70.4813L17.991 78.8363H12.5222ZM4.44336 60.9191V66.8597H8.85565C9.99498 66.8597 10.8443 66.6056 11.4036 66.0973C11.9836 65.5678 12.2736 64.8372 12.2736 63.9053C12.2736 62.9735 11.9836 62.2428 11.4036 61.7133C10.8236 61.1839 9.97426 60.9191 8.85565 60.9191H4.44336Z" fill="white"/>
<path d="M36.8719 78.8363L35.0386 73.5945H26.2451L24.3807 78.8363H19.6888L27.8298 56.5987H33.4539L41.5949 78.8363H36.8719ZM27.7676 69.2741H33.485L30.6263 61.205L27.7676 69.2741Z" fill="white"/>
<path d="M51.1611 65.2713C52.7561 65.6102 54.0404 65.9491 55.014 66.2879C55.9876 66.6268 56.8784 67.0609 57.6863 67.5904C58.4942 68.0987 59.0638 68.734 59.3953 69.4965C59.7474 70.2589 59.9235 71.1802 59.9235 72.2603C59.9235 73.4886 59.6646 74.5793 59.1467 75.5324C58.6495 76.4642 57.9763 77.1843 57.127 77.6926C56.2984 78.2009 55.418 78.5821 54.4858 78.8363C53.5744 79.0904 52.6318 79.2175 51.6582 79.2175C48.696 79.2175 46.438 78.508 44.8844 77.089C43.3515 75.6489 42.4504 73.8487 42.1811 71.6885H46.6556C46.9663 72.8321 47.4945 73.6687 48.2402 74.1981C49.0067 74.7276 50.1357 74.9923 51.6271 74.9923C52.87 74.9923 53.8126 74.77 54.4547 74.3252C55.1176 73.8805 55.4491 73.2557 55.4491 72.4509C55.4491 71.9426 55.2626 71.5402 54.8898 71.2437C54.5376 70.926 54.1026 70.6931 53.5847 70.5448C53.0668 70.3966 52.145 70.1742 50.8193 69.8777C50.7157 69.8565 50.6328 69.8459 50.5707 69.8459C50.5293 69.8247 50.4567 69.8036 50.3532 69.7824C50.2703 69.7612 50.1875 69.74 50.1046 69.7188C48.986 69.4859 48.0435 69.2317 47.277 68.9564C46.5105 68.6811 45.7544 68.2999 45.0087 67.8128C44.263 67.3257 43.6933 66.7009 43.2997 65.9385C42.9269 65.176 42.7404 64.2653 42.7404 63.2064C42.7404 61.0038 43.5483 59.2884 45.1641 58.06C46.7798 56.8316 48.7063 56.2175 50.9436 56.2175C53.6779 56.2175 55.7494 56.8634 57.158 58.1553C58.5874 59.426 59.4367 61.078 59.706 63.1111H55.2005C54.6619 61.3321 53.2533 60.4426 50.9746 60.4426C49.711 60.4426 48.7685 60.6862 48.147 61.1733C47.5256 61.6392 47.2149 62.2534 47.2149 63.0158C47.2149 63.63 47.4738 64.0747 47.9917 64.3501C48.5303 64.6254 49.5867 64.9325 51.1611 65.2713Z" fill="white"/>
<path d="M77.5566 56.5987H82V78.8363H77.5566V69.6235H67.8931V78.8363H63.4497V56.5987H67.8931V65.3031H77.5566V56.5987Z" fill="white"/>
<path d="M122.976 65.2713C124.57 65.6102 125.854 65.9491 126.827 66.2879C127.8 66.6268 128.691 67.0609 129.498 67.5904C130.306 68.0987 130.875 68.734 131.206 69.4965C131.558 70.2589 131.734 71.1802 131.734 72.2603C131.734 73.4886 131.475 74.5793 130.958 75.5324C130.461 76.4642 129.788 77.1843 128.939 77.6926C128.111 78.2009 127.231 78.5821 126.299 78.8363C125.388 79.0904 124.446 79.2175 123.473 79.2175C120.512 79.2175 118.255 78.508 116.702 77.089C115.17 75.6489 114.269 73.8487 114 71.6885H118.472C118.783 72.8321 119.311 73.6687 120.056 74.1981C120.822 74.7276 121.951 74.9923 123.442 74.9923C124.684 74.9923 125.626 74.77 126.268 74.3252C126.931 73.8805 127.262 73.2557 127.262 72.4509C127.262 71.9426 127.075 71.5402 126.703 71.2437C126.351 70.926 125.916 70.6931 125.398 70.5448C124.881 70.3966 123.959 70.1742 122.634 69.8777C122.531 69.8565 122.448 69.8459 122.386 69.8459C122.344 69.8247 122.272 69.8036 122.168 69.7824C122.085 69.7612 122.003 69.74 121.92 69.7188C120.802 69.4859 119.86 69.2317 119.094 68.9564C118.327 68.6811 117.572 68.2999 116.826 67.8128C116.081 67.3257 115.511 66.7009 115.118 65.9385C114.745 65.176 114.559 64.2653 114.559 63.2064C114.559 61.0038 115.367 59.2884 116.982 58.06C118.597 56.8316 120.522 56.2175 122.758 56.2175C125.492 56.2175 127.562 56.8634 128.97 58.1553C130.399 59.426 131.248 61.078 131.517 63.1111H127.013C126.475 61.3321 125.067 60.4426 122.789 60.4426C121.526 60.4426 120.584 60.6862 119.963 61.1733C119.342 61.6392 119.031 62.2534 119.031 63.0158C119.031 63.63 119.29 64.0747 119.808 64.3501C120.346 64.6254 121.402 64.9325 122.976 65.2713Z" fill="#FB5607"/>
<path d="M137.557 59.5213C139.731 57.3188 142.423 56.2175 145.632 56.2175C148.842 56.2175 151.533 57.3188 153.707 59.5213C155.881 61.7239 156.968 64.456 156.968 67.7175C156.968 70.979 155.881 73.711 153.707 75.9136C151.533 78.1162 148.842 79.2175 145.632 79.2175C142.423 79.2175 139.731 78.1162 137.557 75.9136C135.404 73.711 134.327 70.979 134.327 67.7175C134.327 64.456 135.404 61.7239 137.557 59.5213ZM150.508 62.5711C149.225 61.2156 147.599 60.5379 145.632 60.5379C143.665 60.5379 142.029 61.2156 140.725 62.5711C139.441 63.9265 138.799 65.642 138.799 67.7175C138.799 69.793 139.441 71.5084 140.725 72.8639C142.029 74.2193 143.665 74.897 145.632 74.897C147.599 74.897 149.225 74.2193 150.508 72.8639C151.813 71.5084 152.465 69.793 152.465 67.7175C152.465 65.642 151.813 63.9265 150.508 62.5711Z" fill="#FB5607"/>
<path d="M174.184 56.5987H178.688V69.8459C178.688 72.8745 177.86 75.1935 176.203 76.8031C174.547 78.4127 172.383 79.2175 169.712 79.2175C167.041 79.2175 164.877 78.4127 163.221 76.8031C161.564 75.1935 160.736 72.8745 160.736 69.8459V56.5987H165.24V69.5918C165.24 73.1286 166.73 74.897 169.712 74.897C172.694 74.897 174.184 73.1286 174.184 69.5918V56.5987Z" fill="#FB5607"/>
<path d="M187.683 74.5158H197V78.8363H183.241V56.5987H187.683V74.5158Z" fill="#FB5607"/>
<path d="M236.026 65.2713C237.63 65.6102 238.92 65.9491 239.899 66.2879C240.878 66.6268 241.773 67.0609 242.585 67.5904C243.397 68.0987 243.97 68.734 244.303 69.4965C244.657 70.2589 244.834 71.1802 244.834 72.2603C244.834 73.4886 244.574 74.5793 244.053 75.5324C243.553 76.4642 242.877 77.1843 242.023 77.6926C241.19 78.2009 240.305 78.5821 239.368 78.8363C238.452 79.0904 237.505 79.2175 236.526 79.2175C233.548 79.2175 231.279 78.508 229.717 77.089C228.176 75.6489 227.271 73.8487 227 71.6885H231.498C231.81 72.8321 232.341 73.6687 233.09 74.1981C233.861 74.7276 234.996 74.9923 236.495 74.9923C237.744 74.9923 238.691 74.77 239.337 74.3252C240.003 73.8805 240.336 73.2557 240.336 72.4509C240.336 71.9426 240.149 71.5402 239.774 71.2437C239.42 70.926 238.983 70.6931 238.462 70.5448C237.942 70.3966 237.015 70.1742 235.683 69.8777C235.579 69.8565 235.495 69.8459 235.433 69.8459C235.391 69.8247 235.318 69.8036 235.214 69.7824C235.131 69.7612 235.048 69.74 234.964 69.7188C233.84 69.4859 232.893 69.2317 232.122 68.9564C231.352 68.6811 230.592 68.2999 229.842 67.8128C229.093 67.3257 228.52 66.7009 228.124 65.9385C227.75 65.176 227.562 64.2653 227.562 63.2064C227.562 61.0038 228.374 59.2884 229.998 58.06C231.622 56.8316 233.559 56.2175 235.808 56.2175C238.556 56.2175 240.638 56.8634 242.054 58.1553C243.491 59.426 244.345 61.078 244.615 63.1111H240.087C239.545 61.3321 238.129 60.4426 235.839 60.4426C234.569 60.4426 233.621 60.6862 232.997 61.1733C232.372 61.6392 232.06 62.2534 232.06 63.0158C232.06 63.63 232.32 64.0747 232.841 64.3501C233.382 64.6254 234.444 64.9325 236.026 65.2713Z" fill="white"/>
<path d="M250.69 59.5213C252.876 57.3188 255.583 56.2175 258.81 56.2175C262.037 56.2175 264.744 57.3188 266.931 59.5213C269.117 61.7239 270.21 64.456 270.21 67.7175C270.21 70.979 269.117 73.711 266.931 75.9136C264.744 78.1162 262.037 79.2175 258.81 79.2175C255.583 79.2175 252.876 78.1162 250.69 75.9136C248.524 73.711 247.441 70.979 247.441 67.7175C247.441 64.456 248.524 61.7239 250.69 59.5213ZM263.714 62.5711C262.423 61.2156 260.788 60.5379 258.81 60.5379C256.832 60.5379 255.187 61.2156 253.875 62.5711C252.584 63.9265 251.939 65.642 251.939 67.7175C251.939 69.793 252.584 71.5084 253.875 72.8639C255.187 74.2193 256.832 74.897 258.81 74.897C260.788 74.897 262.423 74.2193 263.714 72.8639C265.025 71.5084 265.681 69.793 265.681 67.7175C265.681 65.642 265.025 63.9265 263.714 62.5711Z" fill="white"/>
<path d="M287.523 56.5987H292.051V69.8459C292.051 72.8745 291.219 75.1935 289.553 76.8031C287.887 78.4127 285.711 79.2175 283.025 79.2175C280.339 79.2175 278.163 78.4127 276.498 76.8031C274.832 75.1935 273.999 72.8745 273.999 69.8459V56.5987H278.528V69.5918C278.528 73.1286 280.027 74.897 283.025 74.897C286.023 74.897 287.523 73.1286 287.523 69.5918V56.5987Z" fill="white"/>
<path d="M310.716 56.5987H315.183V78.8363H310.029L300.535 63.27L300.941 69.5282V78.8363H296.474V56.5987H301.596L311.122 72.165L310.716 65.9067V56.5987Z" fill="white"/>
<path d="M327.682 56.5987C330.868 56.5987 333.523 57.6576 335.647 59.7755C337.791 61.8933 338.864 64.5407 338.864 67.7175C338.864 70.8943 337.791 73.5416 335.647 75.6595C333.523 77.7773 330.868 78.8363 327.682 78.8363H319.78V56.5987H327.682ZM327.682 74.5158C329.66 74.5158 331.274 73.8805 332.523 72.6097C333.773 71.339 334.397 69.7083 334.397 67.7175C334.397 65.7267 333.773 64.0959 332.523 62.8252C331.274 61.5545 329.66 60.9191 327.682 60.9191H324.247V74.5158H327.682Z" fill="white"/>
<path d="M354.361 59.5213C356.548 57.3188 359.255 56.2175 362.482 56.2175C365.709 56.2175 368.416 57.3188 370.602 59.5213C372.789 61.7239 373.882 64.456 373.882 67.7175C373.882 70.979 372.789 73.711 370.602 75.9136C368.416 78.1162 365.709 79.2175 362.482 79.2175C359.255 79.2175 356.548 78.1162 354.361 75.9136C352.196 73.711 351.113 70.979 351.113 67.7175C351.113 64.456 352.196 61.7239 354.361 59.5213ZM367.385 62.5711C366.094 61.2156 364.46 60.5379 362.482 60.5379C360.504 60.5379 358.859 61.2156 357.547 62.5711C356.256 63.9265 355.611 65.642 355.611 67.7175C355.611 69.793 356.256 71.5084 357.547 72.8639C358.859 74.2193 360.504 74.897 362.482 74.897C364.46 74.897 366.094 74.2193 367.385 72.8639C368.697 71.5084 369.353 69.793 369.353 67.7175C369.353 65.642 368.697 63.9265 367.385 62.5711Z" fill="white"/>
<path d="M392.35 60.9191H382.137V65.589H391.507V69.9095H382.137V78.8363H377.671V56.5987H392.35V60.9191Z" fill="white"/>
<path d="M423.701 56.5987L415.987 71.4979V78.8363H411.489L411.52 71.5296L403.775 56.5987H408.803L413.738 66.415L418.673 56.5987H423.701Z" fill="white"/>
<path d="M439.896 78.8363L438.053 73.5945H429.214L427.34 78.8363H422.624L430.807 56.5987H436.46L444.643 78.8363H439.896ZM430.745 69.2741H436.491L433.618 61.205L430.745 69.2741Z" fill="white"/>
<path d="M452.287 74.5158H463V78.8363H446.697V74.5158L457.316 60.9191H447.196V56.5987H462.906L462.938 60.9191L452.287 74.5158Z" fill="white"/>
<circle cx="98" cy="67.2175" r="4" fill="white"/>
<circle cx="212" cy="67.2175" r="4" fill="white"/>
<path d="M6.73222 31.3274C9.44639 31.3274 11.7082 32.2168 13.5177 33.9957C15.3448 35.7746 16.2584 37.9982 16.2584 40.6665C16.2584 43.3348 15.3448 45.5583 13.5177 47.3372C11.7082 49.1161 9.44639 50.0055 6.73222 50.0055H0V31.3274H6.73222ZM6.73222 46.3766C8.41749 46.3766 9.79232 45.843 10.8567 44.7756C11.9211 43.7083 12.4533 42.3386 12.4533 40.6665C12.4533 38.9943 11.9211 37.6246 10.8567 36.5573C9.79232 35.4899 8.41749 34.9563 6.73222 34.9563H3.80517V46.3766H6.73222Z" fill="white"/>
<path d="M19.5154 50.0055V31.3274H23.3206V50.0055H19.5154Z" fill="white"/>
<path d="M34.0162 38.6119C35.3821 38.8965 36.482 39.1811 37.3157 39.4657C38.1495 39.7503 38.9123 40.115 39.6042 40.5597C40.296 40.9866 40.7838 41.5203 41.0677 42.1607C41.3693 42.8011 41.52 43.5749 41.52 44.4821C41.52 45.5139 41.2983 46.43 40.8548 47.2305C40.4291 48.0132 39.8525 48.618 39.1252 49.0449C38.4156 49.4718 37.6617 49.792 36.8634 50.0055C36.0828 50.219 35.2757 50.3257 34.4419 50.3257C31.9051 50.3257 29.9715 49.7298 28.641 48.5379C27.3283 47.3283 26.5566 45.8163 26.326 44.0018H30.1578C30.4239 44.9624 30.8762 45.6651 31.5149 46.1098C32.1712 46.5545 33.138 46.7769 34.4153 46.7769C35.4797 46.7769 36.2868 46.5901 36.8368 46.2165C37.4044 45.843 37.6883 45.3182 37.6883 44.6422C37.6883 44.2153 37.5286 43.8773 37.2093 43.6283C36.9077 43.3614 36.5352 43.1658 36.0917 43.0412C35.6482 42.9167 34.8588 42.7299 33.7234 42.4809C33.6348 42.4631 33.5638 42.4542 33.5106 42.4542C33.4751 42.4364 33.413 42.4186 33.3243 42.4008C33.2533 42.3831 33.1824 42.3653 33.1114 42.3475C32.1535 42.1518 31.3463 41.9383 30.69 41.7071C30.0336 41.4758 29.3861 41.1556 28.7475 40.7465C28.1088 40.3374 27.621 39.8126 27.2839 39.1722C26.9646 38.5318 26.805 37.7669 26.805 36.8775C26.805 35.0274 27.4968 33.5866 28.8805 32.5548C30.2642 31.5231 31.914 31.0072 33.8299 31.0072C36.1715 31.0072 37.9455 31.5498 39.1518 32.6349C40.3758 33.7022 41.1032 35.0897 41.3338 36.7974H37.4754C37.0142 35.3032 35.8079 34.556 33.8565 34.556C32.7744 34.556 31.9672 34.7606 31.435 35.1698C30.9028 35.5611 30.6367 36.077 30.6367 36.7174C30.6367 37.2332 30.8585 37.6068 31.302 37.8381C31.7632 38.0693 32.6679 38.3272 34.0162 38.6119Z" fill="white"/>
<path d="M56.6205 31.3274H60.4257V50.0055H56.6205V42.2674H48.345V50.0055H44.5398V31.3274H48.345V38.6385H56.6205V31.3274Z" fill="white"/>
<path d="M79.1809 31.3274C81.8951 31.3274 84.1569 32.2168 85.9663 33.9957C87.7935 35.7746 88.7071 37.9982 88.7071 40.6665C88.7071 43.3348 87.7935 45.5583 85.9663 47.3372C84.1569 49.1161 81.8951 50.0055 79.1809 50.0055H72.4487V31.3274H79.1809ZM79.1809 46.3766C80.8661 46.3766 82.241 45.843 83.3054 44.7756C84.3697 43.7083 84.9019 42.3386 84.9019 40.6665C84.9019 38.9943 84.3697 37.6246 83.3054 36.5573C82.241 35.4899 80.8661 34.9563 79.1809 34.9563H76.2538V46.3766H79.1809Z" fill="white"/>
<path d="M104.31 50.0055L102.741 45.6028H95.21L93.6134 50.0055H89.5954L96.5671 31.3274H101.383L108.355 50.0055H104.31ZM96.5139 41.9739H101.41L98.962 35.1964L96.5139 41.9739Z" fill="white"/>
<path d="M116.547 38.6119C117.913 38.8965 119.013 39.1811 119.847 39.4657C120.681 39.7503 121.443 40.115 122.135 40.5597C122.827 40.9866 123.315 41.5203 123.599 42.1607C123.9 42.8011 124.051 43.5749 124.051 44.4821C124.051 45.5139 123.829 46.43 123.386 47.2305C122.96 48.0132 122.384 48.618 121.656 49.0449C120.947 49.4718 120.193 49.792 119.395 50.0055C118.614 50.219 117.807 50.3257 116.973 50.3257C114.436 50.3257 112.503 49.7298 111.172 48.5379C109.859 47.3283 109.088 45.8163 108.857 44.0018H112.689C112.955 44.9624 113.407 45.6651 114.046 46.1098C114.702 46.5545 115.669 46.7769 116.946 46.7769C118.011 46.7769 118.818 46.5901 119.368 46.2165C119.936 45.843 120.219 45.3182 120.219 44.6422C120.219 44.2153 120.06 43.8773 119.74 43.6283C119.439 43.3614 119.066 43.1658 118.623 43.0412C118.179 42.9167 117.39 42.7299 116.255 42.4809C116.166 42.4631 116.095 42.4542 116.042 42.4542C116.006 42.4364 115.944 42.4186 115.855 42.4008C115.785 42.3831 115.714 42.3653 115.643 42.3475C114.685 42.1518 113.878 41.9383 113.221 41.7071C112.565 41.4758 111.917 41.1556 111.279 40.7465C110.64 40.3374 110.152 39.8126 109.815 39.1722C109.496 38.5318 109.336 37.7669 109.336 36.8775C109.336 35.0274 110.028 33.5866 111.412 32.5548C112.795 31.5231 114.445 31.0072 116.361 31.0072C118.703 31.0072 120.477 31.5498 121.683 32.6349C122.907 33.7022 123.634 35.0897 123.865 36.7974H120.007C119.545 35.3032 118.339 34.556 116.388 34.556C115.306 34.556 114.498 34.7606 113.966 35.1698C113.434 35.5611 113.168 36.077 113.168 36.7174C113.168 37.2332 113.39 37.6068 113.833 37.8381C114.294 38.0693 115.199 38.3272 116.547 38.6119Z" fill="white"/>
<path d="M139.152 31.3274H142.957V50.0055H139.152V42.2674H130.876V50.0055H127.071V31.3274H130.876V38.6385H139.152V31.3274Z" fill="white"/>
<path d="M177.696 50.3257C174.931 50.3257 172.635 49.4096 170.809 47.5774C168.984 45.7273 168.071 43.4237 168.071 40.6665C168.071 37.9092 168.984 35.6145 170.809 33.7822C172.635 31.9322 174.931 31.0072 177.696 31.0072C179.894 31.0072 181.799 31.6298 183.412 32.875C185.043 34.1024 186.133 35.7212 186.683 37.7313H182.615C182.171 36.7529 181.516 35.9969 180.647 35.4633C179.796 34.9118 178.804 34.6361 177.669 34.6361C175.968 34.6361 174.576 35.2053 173.495 36.3438C172.431 37.4645 171.9 38.9054 171.9 40.6665C171.9 42.4275 172.431 43.8773 173.495 45.0158C174.576 46.1365 175.968 46.6968 177.669 46.6968C178.804 46.6968 179.796 46.43 180.647 45.8963C181.516 45.3449 182.171 44.58 182.615 43.6016H186.683C186.133 45.6117 185.043 47.2394 183.412 48.4846C181.799 49.712 179.894 50.3257 177.696 50.3257Z" fill="#FB5607"/>
<path d="M191.683 33.7822C193.545 31.9322 195.849 31.0072 198.596 31.0072C201.344 31.0072 203.648 31.9322 205.509 33.7822C207.37 35.6323 208.301 37.927 208.301 40.6665C208.301 43.4059 207.37 45.7006 205.509 47.5507C203.648 49.4007 201.344 50.3257 198.596 50.3257C195.849 50.3257 193.545 49.4007 191.683 47.5507C189.84 45.7006 188.918 43.4059 188.918 40.6665C188.918 37.927 189.84 35.6323 191.683 33.7822ZM202.771 36.3438C201.672 35.2053 200.28 34.6361 198.596 34.6361C196.912 34.6361 195.512 35.2053 194.395 36.3438C193.296 37.4823 192.747 38.9232 192.747 40.6665C192.747 42.4097 193.296 43.8506 194.395 44.9891C195.512 46.1276 196.912 46.6968 198.596 46.6968C200.28 46.6968 201.672 46.1276 202.771 44.9891C203.887 43.8506 204.446 42.4097 204.446 40.6665C204.446 38.9232 203.887 37.4823 202.771 36.3438Z" fill="#FB5607"/>
<path d="M218.2 38.6119C219.565 38.8965 220.664 39.1811 221.497 39.4657C222.33 39.7503 223.092 40.115 223.783 40.5597C224.475 40.9866 224.962 41.5203 225.246 42.1607C225.547 42.8011 225.698 43.5749 225.698 44.4821C225.698 45.5139 225.476 46.43 225.033 47.2305C224.608 48.0132 224.032 48.618 223.305 49.0449C222.596 49.4718 221.843 49.792 221.045 50.0055C220.265 50.219 219.458 50.3257 218.625 50.3257C216.091 50.3257 214.159 49.7298 212.829 48.5379C211.518 47.3283 210.746 45.8163 210.516 44.0018H214.345C214.611 44.9624 215.063 45.6651 215.701 46.1098C216.357 46.5545 217.323 46.7769 218.599 46.7769C219.662 46.7769 220.469 46.5901 221.018 46.2165C221.586 45.843 221.869 45.3182 221.869 44.6422C221.869 44.2153 221.71 43.8773 221.391 43.6283C221.089 43.3614 220.717 43.1658 220.274 43.0412C219.831 42.9167 219.042 42.7299 217.908 42.4809C217.819 42.4631 217.748 42.4542 217.695 42.4542C217.659 42.4364 217.597 42.4186 217.509 42.4008C217.438 42.3831 217.367 42.3653 217.296 42.3475C216.339 42.1518 215.532 41.9383 214.876 41.7071C214.221 41.4758 213.574 41.1556 212.936 40.7465C212.297 40.3374 211.81 39.8126 211.473 39.1722C211.154 38.5318 210.995 37.7669 210.995 36.8775C210.995 35.0274 211.686 33.5866 213.068 32.5548C214.451 31.5231 216.1 31.0072 218.014 31.0072C220.354 31.0072 222.126 31.5498 223.331 32.6349C224.555 33.7022 225.281 35.0897 225.512 36.7974H221.656C221.196 35.3032 219.99 34.556 218.04 34.556C216.959 34.556 216.153 34.7606 215.621 35.1698C215.089 35.5611 214.823 36.077 214.823 36.7174C214.823 37.2332 215.045 37.6068 215.488 37.8381C215.949 38.0693 216.853 38.3272 218.2 38.6119Z" fill="#FB5607"/>
<path d="M242.488 31.3274H246.875V50.0055H243.073V36.6106L237.888 44.4821H237.542L232.384 36.6106V50.0055H228.582V31.3274H232.943L237.728 38.5051L242.488 31.3274Z" fill="#FB5607"/>
<path d="M250.889 50.0055V31.3274H254.691V50.0055H250.889Z" fill="#FB5607"/>
<path d="M267.638 50.3257C264.873 50.3257 262.578 49.4096 260.752 47.5774C258.926 45.7273 258.013 43.4237 258.013 40.6665C258.013 37.9092 258.926 35.6145 260.752 33.7822C262.578 31.9322 264.873 31.0072 267.638 31.0072C269.836 31.0072 271.742 31.6298 273.355 32.875C274.985 34.1024 276.075 35.7212 276.625 37.7313H272.557C272.114 36.7529 271.458 35.9969 270.589 35.4633C269.739 34.9118 268.746 34.6361 267.612 34.6361C265.91 34.6361 264.519 35.2053 263.437 36.3438C262.374 37.4645 261.842 38.9054 261.842 40.6665C261.842 42.4275 262.374 43.8773 263.437 45.0158C264.519 46.1365 265.91 46.6968 267.612 46.6968C268.746 46.6968 269.739 46.43 270.589 45.8963C271.458 45.3449 272.114 44.58 272.557 43.6016H276.625C276.075 45.6117 274.985 47.2394 273.355 48.4846C271.742 49.712 269.836 50.3257 267.638 50.3257Z" fill="#FB5607"/>
<path d="M292.332 50.0055L290.764 45.6028H283.239L281.644 50.0055H277.629L284.595 31.3274H289.408L296.374 50.0055H292.332ZM284.542 41.9739H289.434L286.988 35.1964L284.542 41.9739Z" fill="#FB5607"/>
<path d="M310.062 31.3274V34.9563H304.691V50.0055H300.889V34.9563H295.545V31.3274H310.062Z" fill="#FB5607"/>
<path d="M344.964 50.0055L340.134 43.282H338.026V50.0055H334.21V31.3292H342.242C344.235 31.3292 345.791 31.8806 346.912 32.9834C348.051 34.0684 348.62 35.5447 348.62 37.4123C348.62 38.9064 348.255 40.1249 347.526 41.0676C346.797 42.0103 345.765 42.6506 344.431 42.9886L349.661 50.0055H344.964ZM338.026 34.9577V39.947H341.815C342.794 39.947 343.523 39.7335 344.004 39.3067C344.502 38.862 344.751 38.2483 344.751 37.4657C344.751 36.6831 344.502 36.0694 344.004 35.6247C343.505 35.1801 342.776 34.9577 341.815 34.9577H338.026Z" fill="white"/>
<path d="M359.151 31.3292C361.873 31.3292 364.141 32.2185 365.956 33.9972C367.788 35.7759 368.705 37.9993 368.705 40.6674C368.705 43.3354 367.788 45.5588 365.956 47.3375C364.141 49.1162 361.873 50.0055 359.151 50.0055H352.4V31.3292H359.151ZM359.151 46.377C360.841 46.377 362.22 45.8434 363.287 44.7762C364.355 43.7089 364.889 42.3393 364.889 40.6674C364.889 38.9954 364.355 37.6258 363.287 36.5586C362.22 35.4913 360.841 34.9577 359.151 34.9577H356.216V46.377H359.151Z" fill="white"/>
<path d="M379.63 31.3292H383.472V43.8157C383.472 45.8967 382.867 47.5065 381.658 48.6448C380.448 49.7654 378.909 50.3257 377.041 50.3257C375.191 50.3257 373.67 49.7743 372.478 48.6715C371.286 47.5509 370.69 45.9501 370.69 43.869V42.9085H374.533V43.7623C374.533 45.7189 375.369 46.6972 377.041 46.6972C378.767 46.6972 379.63 45.7011 379.63 43.7089V31.3292Z" fill="white"/>
<path d="M422.621 50.0037L421.055 45.6019H413.543L411.95 50.0037H407.942L414.897 31.3292H419.701L426.655 50.0037H422.621ZM414.843 41.9737H419.727L417.285 35.1975L414.843 41.9737Z" fill="#FB5607"/>
<path d="M440.105 50.0037L435.301 43.2809H433.204V50.0037H429.409V31.3292H437.398C439.38 31.3292 440.928 31.8805 442.043 32.9832C443.176 34.0681 443.742 35.5443 443.742 37.4117C443.742 38.9057 443.379 40.124 442.654 41.0666C441.928 42.0092 440.902 42.6495 439.575 42.9874L444.777 50.0037H440.105ZM433.204 34.9574V39.9461H436.973C437.947 39.9461 438.672 39.7327 439.15 39.3059C439.645 38.8612 439.893 38.2477 439.893 37.4651C439.893 36.6825 439.645 36.069 439.15 35.6243C438.654 35.1797 437.929 34.9574 436.973 34.9574H433.204Z" fill="#FB5607"/>
<path d="M463 50.0037H458.461L454.612 43.5743L450.843 50.0037H446.331L452.33 40.3196L446.623 31.3292H451.135L454.719 37.3317L458.328 31.3292H462.841L457.028 40.6131L463 50.0037Z" fill="#FB5607"/>
<circle cx="155.672" cy="41.1283" r="4.01631" fill="white"/>
<circle cx="322.429" cy="41.1283" r="4.01631" fill="white"/>
<circle cx="396.008" cy="41.1283" r="4.01631" fill="white"/>
<path d="M12.2517 156.499H16.117V172.936H12.7671V161.148L8.19903 168.075H7.8945L3.34989 161.148V172.936H0V156.499H3.84183L8.05848 162.816L12.2517 156.499Z" fill="#FB5607"/>
<path d="M21.3874 158.659C23.0272 157.031 25.0574 156.217 27.4781 156.217C29.8988 156.217 31.929 157.031 33.5688 158.659C35.2086 160.287 36.0285 162.307 36.0285 164.717C36.0285 167.128 35.2086 169.147 33.5688 170.775C31.929 172.403 29.8988 173.217 27.4781 173.217C25.0574 173.217 23.0272 172.403 21.3874 170.775C19.7632 169.147 18.9511 167.128 18.9511 164.717C18.9511 162.307 19.7632 160.287 21.3874 158.659ZM31.156 160.914C30.1877 159.912 28.9617 159.411 27.4781 159.411C25.9945 159.411 24.7607 159.912 23.7768 160.914C22.8086 161.915 22.3244 163.183 22.3244 164.717C22.3244 166.252 22.8086 167.519 23.7768 168.521C24.7607 169.523 25.9945 170.024 27.4781 170.024C28.9617 170.024 30.1877 169.523 31.156 168.521C32.1398 167.519 32.6318 166.252 32.6318 164.717C32.6318 163.183 32.1398 161.915 31.156 160.914Z" fill="#FB5607"/>
<path d="M44.7503 162.909C45.9528 163.16 46.921 163.41 47.655 163.661C48.3891 163.911 49.0606 164.232 49.6697 164.624C50.2787 164.999 50.7082 165.469 50.9581 166.032C51.2236 166.596 51.3563 167.277 51.3563 168.075C51.3563 168.983 51.1611 169.789 50.7707 170.494C50.3959 171.182 49.8883 171.715 49.248 172.09C48.6233 172.466 47.9596 172.748 47.2568 172.936C46.5697 173.124 45.8591 173.217 45.1251 173.217C42.8918 173.217 41.1895 172.693 40.0182 171.644C38.8626 170.58 38.1832 169.249 37.9802 167.653H41.3535C41.5878 168.498 41.986 169.116 42.5482 169.508C43.1261 169.899 43.9772 170.095 45.1016 170.095C46.0387 170.095 46.7493 169.93 47.2334 169.601C47.7331 169.273 47.983 168.811 47.983 168.216C47.983 167.84 47.8425 167.543 47.5613 167.324C47.2959 167.089 46.9679 166.917 46.5775 166.807C46.187 166.698 45.4921 166.533 44.4926 166.314C44.4145 166.298 44.352 166.291 44.3052 166.291C44.2739 166.275 44.2193 166.259 44.1412 166.244C44.0787 166.228 44.0162 166.212 43.9538 166.197C43.1104 166.025 42.3999 165.837 41.822 165.633C41.2442 165.43 40.6742 165.148 40.1119 164.788C39.5497 164.428 39.1203 163.966 38.8235 163.403C38.5424 162.839 38.4019 162.166 38.4019 161.383C38.4019 159.755 39.0109 158.487 40.2291 157.579C41.4472 156.671 42.8996 156.217 44.5863 156.217C46.6477 156.217 48.2095 156.695 49.2714 157.65C50.349 158.589 50.9893 159.81 51.1923 161.313H47.7956C47.3896 159.998 46.3276 159.34 44.6097 159.34C43.657 159.34 42.9465 159.52 42.4779 159.88C42.0094 160.225 41.7752 160.679 41.7752 161.242C41.7752 161.696 41.9704 162.025 42.3608 162.229C42.7669 162.432 43.5633 162.659 44.7503 162.909Z" fill="#FB5607"/>
<path d="M64.6501 156.499H68V172.936H64.6501V166.126H57.3647V172.936H54.0148V156.499H57.3647V162.933H64.6501V156.499Z" fill="#FB5607"/>
<path d="M110.978 156.499C112.782 156.499 114.214 156.992 115.274 157.979C116.35 158.965 116.888 160.311 116.888 162.017C116.888 163.739 116.35 165.109 115.274 166.126C114.198 167.128 112.766 167.629 110.978 167.629H107.394V172.936H104V156.499H110.978ZM110.836 164.436C111.69 164.436 112.339 164.224 112.782 163.802C113.225 163.379 113.447 162.8 113.447 162.064C113.447 161.313 113.225 160.734 112.782 160.327C112.339 159.904 111.69 159.693 110.836 159.693H107.394V164.436H110.836Z" fill="white"/>
<path d="M129.327 172.936L125.031 167.019H123.156V172.936H119.762V156.499H126.906C128.678 156.499 130.063 156.985 131.06 157.955C132.072 158.91 132.579 160.209 132.579 161.853C132.579 163.168 132.254 164.24 131.605 165.07C130.957 165.899 130.039 166.463 128.852 166.76L133.504 172.936H129.327ZM123.156 159.693V164.083H126.526C127.396 164.083 128.045 163.896 128.472 163.52C128.915 163.129 129.137 162.589 129.137 161.9C129.137 161.211 128.915 160.671 128.472 160.28C128.029 159.888 127.381 159.693 126.526 159.693H123.156Z" fill="white"/>
<path d="M135.57 172.936V156.499H138.964V172.936H135.57Z" fill="white"/>
<path d="M153.251 156.499H156.645V172.936H152.729L145.513 161.43L145.822 166.056V172.936H142.428V156.499H146.32L153.56 168.005L153.251 163.379V156.499Z" fill="white"/>
<path d="M168.114 173.217C165.646 173.217 163.597 172.411 161.967 170.799C160.337 169.171 159.522 167.144 159.522 164.717C159.522 162.291 160.337 160.272 161.967 158.659C163.597 157.031 165.646 156.217 168.114 156.217C170.076 156.217 171.777 156.765 173.217 157.861C174.673 158.941 175.646 160.366 176.137 162.135H172.505C172.11 161.274 171.524 160.608 170.749 160.139C169.989 159.653 169.103 159.411 168.09 159.411C166.571 159.411 165.329 159.912 164.364 160.914C163.415 161.9 162.94 163.168 162.94 164.717C162.94 166.267 163.415 167.543 164.364 168.545C165.329 169.531 166.571 170.024 168.09 170.024C169.103 170.024 169.989 169.789 170.749 169.32C171.524 168.834 172.11 168.161 172.505 167.3H176.137C175.646 169.069 174.673 170.502 173.217 171.597C171.777 172.677 170.076 173.217 168.114 173.217Z" fill="white"/>
<path d="M190 159.693H182.239V163.003H189.359V166.197H182.239V169.742H190V172.936H178.844V156.499H190V159.693Z" fill="white"/>
<path d="M230.831 162.909C232.044 163.16 233.021 163.41 233.762 163.661C234.502 163.911 235.18 164.232 235.794 164.624C236.409 164.999 236.842 165.469 237.094 166.032C237.362 166.596 237.496 167.277 237.496 168.075C237.496 168.983 237.299 169.789 236.905 170.494C236.527 171.182 236.015 171.715 235.369 172.09C234.739 172.466 234.069 172.748 233.36 172.936C232.667 173.124 231.95 173.217 231.209 173.217C228.956 173.217 227.238 172.693 226.056 171.644C224.89 170.58 224.205 169.249 224 167.653H227.404C227.64 168.498 228.042 169.116 228.609 169.508C229.192 169.899 230.051 170.095 231.185 170.095C232.131 170.095 232.848 169.93 233.336 169.601C233.84 169.273 234.093 168.811 234.093 168.216C234.093 167.84 233.951 167.543 233.667 167.324C233.399 167.089 233.068 166.917 232.674 166.807C232.28 166.698 231.579 166.533 230.571 166.314C230.492 166.298 230.429 166.291 230.382 166.291C230.35 166.275 230.295 166.259 230.216 166.244C230.153 166.228 230.09 166.212 230.027 166.197C229.176 166.025 228.459 165.837 227.876 165.633C227.293 165.43 226.718 165.148 226.151 164.788C225.584 164.428 225.15 163.966 224.851 163.403C224.567 162.839 224.425 162.166 224.425 161.383C224.425 159.755 225.04 158.487 226.269 157.579C227.498 156.671 228.964 156.217 230.665 156.217C232.745 156.217 234.321 156.695 235.393 157.65C236.48 158.589 237.126 159.81 237.331 161.313H233.903C233.494 159.998 232.422 159.34 230.689 159.34C229.728 159.34 229.011 159.52 228.538 159.88C228.065 160.225 227.829 160.679 227.829 161.242C227.829 161.696 228.026 162.025 228.42 162.229C228.83 162.432 229.633 162.659 230.831 162.909Z" fill="#FB5607"/>
<path d="M251.745 172.936L250.351 169.061H243.662L242.244 172.936H238.675L244.867 156.499H249.145L255.338 172.936H251.745ZM244.82 165.868H249.169L246.994 159.904L244.82 165.868Z" fill="#FB5607"/>
<path d="M268.048 164.083C268.915 164.365 269.569 164.874 270.01 165.61C270.451 166.33 270.672 167.191 270.672 168.193C270.672 169.68 270.167 170.846 269.159 171.691C268.166 172.521 266.811 172.936 265.094 172.936H257.79V156.499H265.046C266.606 156.499 267.835 156.867 268.733 157.603C269.647 158.339 270.104 159.395 270.104 160.773C270.104 162.291 269.419 163.395 268.048 164.083ZM266.701 161.336C266.701 160.741 266.527 160.319 266.181 160.068C265.85 159.818 265.322 159.693 264.597 159.693H261.17V163.003H264.692C266.031 163.003 266.701 162.448 266.701 161.336ZM265.023 169.742C265.842 169.742 266.417 169.586 266.748 169.273C267.079 168.96 267.244 168.506 267.244 167.911C267.244 167.285 267.079 166.823 266.748 166.525C266.417 166.228 265.834 166.079 264.999 166.079H261.17V169.742H265.023Z" fill="#FB5607"/>
<path d="M283.628 164.083C284.495 164.365 285.149 164.874 285.59 165.61C286.031 166.33 286.252 167.191 286.252 168.193C286.252 169.68 285.748 170.846 284.739 171.691C283.747 172.521 282.391 172.936 280.674 172.936H273.37V156.499H280.627C282.187 156.499 283.416 156.867 284.314 157.603C285.228 158.339 285.685 159.395 285.685 160.773C285.685 162.291 284.999 163.395 283.628 164.083ZM282.281 161.336C282.281 160.741 282.108 160.319 281.761 160.068C281.43 159.818 280.902 159.693 280.177 159.693H276.75V163.003H280.272C281.611 163.003 282.281 162.448 282.281 161.336ZM280.603 169.742C281.422 169.742 281.997 169.586 282.328 169.273C282.659 168.96 282.825 168.506 282.825 167.911C282.825 167.285 282.659 166.823 282.328 166.525C281.997 166.228 281.414 166.079 280.579 166.079H276.75V169.742H280.603Z" fill="#FB5607"/>
<path d="M300.356 172.936L298.961 169.061H292.272L290.854 172.936H287.285L293.478 156.499H297.756L303.949 172.936H300.356ZM293.431 165.868H297.78L295.605 159.904L293.431 165.868Z" fill="#FB5607"/>
<path d="M312.357 164.013H321.409V172.936H318.526V170.165C318.132 171.073 317.438 171.809 316.446 172.372C315.469 172.936 314.303 173.217 312.947 173.217C310.615 173.217 308.661 172.419 307.086 170.822C305.51 169.21 304.722 167.183 304.722 164.741C304.722 162.283 305.526 160.248 307.133 158.636C308.756 157.024 310.804 156.217 313.278 156.217C315.232 156.217 316.926 156.75 318.36 157.814C319.81 158.863 320.779 160.24 321.267 161.947H317.651C317.257 161.148 316.674 160.53 315.902 160.092C315.146 159.638 314.263 159.411 313.255 159.411C311.726 159.411 310.489 159.912 309.544 160.914C308.598 161.915 308.126 163.207 308.126 164.788C308.126 166.322 308.575 167.598 309.473 168.615C310.387 169.617 311.632 170.118 313.207 170.118C314.358 170.118 315.358 169.828 316.209 169.249C317.06 168.67 317.627 167.864 317.911 166.831H312.357V164.013Z" fill="#FB5607"/>
<path d="M335.62 156.499H339V172.936H335.62V166.126H328.269V172.936H324.889V156.499H328.269V162.933H335.62V156.499Z" fill="#FB5607"/>
<circle cx="86" cy="164.217" r="4" fill="white"/>
<circle cx="207" cy="164.217" r="4" fill="white"/>
<circle cx="356" cy="164.217" r="4" fill="white"/>
<path d="M387.327 156.217L381.393 167.607V173.217H377.934L377.958 167.632L372 156.217H375.868L379.664 163.722L383.459 156.217H387.327Z" fill="white"/>
<path d="M399.784 173.217L398.367 169.21H391.568L390.126 173.217H386.499L392.793 156.217H397.141L403.436 173.217H399.784ZM392.745 165.907H397.165L394.955 159.739L392.745 165.907Z" fill="white"/>
<path d="M409.315 169.915H417.555V173.217H405.015V169.915L413.183 159.52H405.399V156.217H417.483L417.507 159.52L409.315 169.915Z" fill="white"/>
<path d="M431.554 159.52H423.698V162.945H430.905V166.247H423.698V169.915H431.554V173.217H420.262V156.217H431.554V159.52Z" fill="white"/>
<path d="M445.583 159.52H437.727V162.945H444.934V166.247H437.727V169.915H445.583V173.217H434.292V156.217H445.583V159.52Z" fill="white"/>
<path d="M454.399 156.217C456.85 156.217 458.892 157.027 460.526 158.646C462.175 160.265 463 162.289 463 164.717C463 167.146 462.175 169.17 460.526 170.789C458.892 172.408 456.85 173.217 454.399 173.217H448.321V156.217H454.399ZM454.399 169.915C455.921 169.915 457.162 169.429 458.123 168.457C459.084 167.486 459.565 166.239 459.565 164.717C459.565 163.196 459.084 161.949 458.123 160.977C457.162 160.006 455.921 159.52 454.399 159.52H451.757V169.915H454.399Z" fill="white"/>
</svg>
