<svg width="97" height="47" viewBox="0 0 97 47" fill="none" xmlns="http://www.w3.org/2000/svg">
<path d="M10.6038 18.1877L5.84129 11.6401H3.76263V18.1877H0V0H7.91994C9.88458 0 11.4195 0.53697 12.5246 1.61091C13.6472 2.66753 14.2085 4.10522 14.2085 5.92399C14.2085 7.37901 13.8489 8.56554 13.1297 9.48358C12.4105 10.4016 11.3931 11.0252 10.0775 11.3543L15.2347 18.1877H10.6038ZM3.76263 3.53361V8.39232H7.49895C8.46373 8.39232 9.18293 8.18446 9.65654 7.76874C10.1477 7.3357 10.3933 6.73811 10.3933 5.97596C10.3933 5.21381 10.1477 4.61621 9.65654 4.18317C9.16538 3.75013 8.44619 3.53361 7.49895 3.53361H3.76263Z" fill="black"/>
<path d="M17.5243 18.1877V0H21.2869V18.1877H17.5243Z" fill="black"/>
<path d="M40.7827 0L34.2836 12.1858V18.1877H30.4947L30.521 12.2117L23.9956 0H28.2319L32.3892 8.02857L36.5465 0H40.7827Z" fill="black"/>
<path d="M54.426 18.1877L52.8736 13.9006H45.4272L43.8485 18.1877H39.8754L46.7691 0H51.5316L58.4254 18.1877H54.426ZM46.7165 10.367H51.558L49.1372 3.76745L46.7165 10.367Z" fill="black"/>
<path d="M67.8121 0C70.4959 0 72.7324 0.866081 74.5216 2.59824C76.3284 4.3304 77.2318 6.49561 77.2318 9.09385C77.2318 11.6921 76.3284 13.8573 74.5216 15.5895C72.7324 17.3216 70.4959 18.1877 67.8121 18.1877H61.1551V0H67.8121ZM67.8121 14.6541C69.4785 14.6541 70.8379 14.1344 71.8904 13.0951C72.9429 12.0558 73.4692 10.7221 73.4692 9.09385C73.4692 7.46562 72.9429 6.13185 71.8904 5.09256C70.8379 4.05326 69.4785 3.53361 67.8121 3.53361H64.9177V14.6541H67.8121Z" fill="black"/>
<path d="M92.398 0H96.1607V18.1877H92.398V10.6528H84.215V18.1877H80.4524V0H84.215V7.11918H92.398V0Z" fill="black"/>
<path d="M52.6595 46.603H46.9055L38.4511 35.7858V46.603H33.8543V23.4468H38.4511V33.7017L46.4554 23.4468H52.1452L43.3051 34.661L52.6595 46.603Z" fill="black"/>
<path d="M62.8301 32.4777C64.4803 32.8306 65.809 33.1835 66.8162 33.5363C67.8234 33.8892 68.7449 34.3413 69.5807 34.8926C70.4165 35.4219 71.0058 36.0835 71.3487 36.8774C71.713 37.6714 71.8952 38.6307 71.8952 39.7554C71.8952 41.0345 71.6273 42.1703 71.0916 43.1627C70.5772 44.133 69.8807 44.8829 69.0021 45.4121C68.1449 45.9414 67.2341 46.3384 66.2697 46.603C65.3268 46.8677 64.3517 47 63.3445 47C60.2799 47 57.944 46.2612 56.3367 44.7836C54.7508 43.284 53.8186 41.4094 53.54 39.16H58.169C58.4905 40.3509 59.0369 41.222 59.8084 41.7733C60.6014 42.3247 61.7693 42.6003 63.3123 42.6003C64.5981 42.6003 65.5732 42.3688 66.2376 41.9056C66.9233 41.4425 67.2662 40.7919 67.2662 39.9539C67.2662 39.4246 67.0734 39.0056 66.6876 38.6968C66.3233 38.366 65.8732 38.1235 65.3375 37.9691C64.8017 37.8147 63.8481 37.5831 62.4765 37.2744C62.3694 37.2523 62.2836 37.2413 62.2194 37.2413C62.1765 37.2193 62.1015 37.1972 61.9943 37.1752C61.9086 37.1531 61.8229 37.131 61.7372 37.109C60.5799 36.8664 59.6048 36.6018 58.8119 36.3151C58.019 36.0284 57.2368 35.6314 56.4653 35.1242C55.6938 34.6169 55.1044 33.9664 54.6973 33.1724C54.3115 32.3785 54.1186 31.4302 54.1186 30.3275C54.1186 28.034 54.9544 26.2476 56.626 24.9685C58.2976 23.6894 60.2906 23.0499 62.6051 23.0499C65.4339 23.0499 67.577 23.7225 69.0342 25.0678C70.5129 26.391 71.3916 28.1112 71.6702 30.2283H67.0091C66.4519 28.3758 64.9946 27.4495 62.6372 27.4495C61.33 27.4495 60.3549 27.7032 59.712 28.2104C59.0691 28.6956 58.7476 29.3351 58.7476 30.129C58.7476 30.7686 59.0155 31.2317 59.5513 31.5184C60.1085 31.8051 61.2014 32.1249 62.8301 32.4777Z" fill="black"/>
<path d="M91.2745 46.603L89.3779 41.1448H80.2807L78.352 46.603H73.498L81.9201 23.4468H87.7385L96.1607 46.603H91.2745ZM81.8558 36.6459H87.7706L84.8132 28.2435L81.8558 36.6459Z" fill="black"/>
<path d="M4.7997 27.6882C5.91797 27.6882 6.85355 28.0339 7.60644 28.7254C8.37041 29.4168 8.75239 30.3332 8.75239 31.4746C8.75239 32.638 8.34827 33.5983 7.54001 34.3556C6.73176 35.1019 5.72421 35.4751 4.51736 35.4751C3.35481 35.4751 2.35279 35.1623 1.51132 34.5367C0.669854 33.9111 0.16608 33.0276 0 31.8862H1.39507C1.56115 32.6215 1.92652 33.1868 2.49119 33.5819C3.05586 33.977 3.73125 34.1745 4.51736 34.1745C5.33669 34.1745 6.01208 33.9166 6.54353 33.4008C7.08606 32.8849 7.35732 32.2429 7.35732 31.4746C7.35732 30.6844 7.0916 30.0479 6.56014 29.565C6.02869 29.0821 5.3533 28.8406 4.53397 28.8406C3.28284 28.8406 2.36387 29.34 1.77705 30.3387H0.448415L1.86009 23.7701H8.20433V25.0707H2.90639L2.14243 28.6595C2.85103 28.012 3.73679 27.6882 4.7997 27.6882Z" fill="black"/>
<path d="M16.3295 29.6802V30.9808H10.9485V29.6802H16.3295Z" fill="black"/>
<path d="M23.2222 27.5401C24.3183 27.5401 25.2539 27.8858 26.0289 28.5772C26.804 29.2577 27.1915 30.1905 27.1915 31.3759C27.1915 32.5941 26.7763 33.5819 25.9459 34.3391C25.1155 35.0964 24.0803 35.4751 22.8402 35.4751C21.6112 35.4751 20.5815 35.1019 19.7511 34.3556C18.9207 33.5983 18.5055 32.5886 18.5055 31.3265C18.5055 30.4155 18.7768 29.4991 19.3193 28.5772C19.8619 27.6553 20.9414 26.1298 22.5579 24.0006C22.6354 23.9018 22.6963 23.825 22.7406 23.7701H24.3515L21.0466 28.1492C21.7662 27.7431 22.4915 27.5401 23.2222 27.5401ZM22.8402 34.1745C23.6928 34.1745 24.4014 33.9166 24.966 33.4008C25.5307 32.8849 25.813 32.21 25.813 31.3759C25.813 30.5308 25.5307 29.8613 24.966 29.3674C24.4014 28.8626 23.6983 28.6101 22.8568 28.6101C21.9821 28.6101 21.268 28.8626 20.7144 29.3674C20.1719 29.8723 19.9006 30.5472 19.9006 31.3923C19.9006 32.2374 20.1774 32.9124 20.731 33.4172C21.2957 33.9221 21.9988 34.1745 22.8402 34.1745Z" fill="black"/>
<path d="M8.10154 37.0957H9.44681V46.4597H8.35213V38.5271L5.22636 43.316H5.12085L1.99507 38.5271V46.4597H0.900391V37.0957H2.24566L5.1736 41.5637L8.10154 37.0957Z" fill="black"/>
<path d="M18.6967 46.4597L17.602 43.6505H13.3156L12.2209 46.4597H11.0603L14.7532 37.0957H16.1644L19.8573 46.4597H18.6967ZM13.7376 42.5937H17.1931L15.4654 38.1525L13.7376 42.5937Z" fill="black"/>
<path d="M27.3716 37.0957L23.9557 43.102V46.4597H22.861V43.1288L19.445 37.0957H20.6848L23.4017 41.8847L26.1186 37.0957H27.3716Z" fill="black"/>
</svg>
