<svg xmlns="http://www.w3.org/2000/svg" width="228.776" height="968.955" viewBox="0 0 228.776 968.955">
  <path id="Path_62" data-name="Path 62" d="M9.694,39.467V5.279C9.694-3.159,12.8-10,16.633-10H220.122c3.832,0,6.939,6.841,6.939,15.279V38.7c0,2.848-1.048,5.157-2.342,5.157s-2.342,2.309-2.342,5.157v4.2c0,2.848,1.049,5.157,2.342,5.157s2.342,2.309,2.342,5.157V83.969c0,1.9-.7,3.438-1.561,3.438s-1.561,1.539-1.561,3.438V102.5c0,1.793-.66,3.247-1.475,3.247s-1.475,1.454-1.475,3.247v11.078c0,3.692,1.359,6.685,3.036,6.685s3.036,2.993,3.036,6.685v39.918c0,1.9-.7,3.438-1.561,3.438s-1.561,1.539-1.561,3.438v12.8c0,1.793-.66,3.247-1.475,3.247s-1.475,1.454-1.475,3.247V233.9c0,1.793.66,3.247,1.475,3.247s1.475-1.454,1.475-3.247v-.573c0-2.109.777-3.82,1.735-3.82h.434c1.2,0,2.169,2.138,2.169,4.775V251.47c0,2.637-.971,4.775-2.169,4.775s-2.168,2.138-2.168,4.775v12.606c0,2.637.971,4.775,2.168,4.775s2.169,2.138,2.169,4.775v31.7c0,2.637-.971,4.775-2.169,4.775h-.434c-.958,0-1.735-1.711-1.735-3.82s-.777-3.82-1.735-3.82h-.347c-1.15,0-2.082,2.052-2.082,4.584v17.189c0,2.532.932,4.584,2.082,4.584s2.082-2.052,2.082-4.584v-2.1c0-2.637.971-4.775,2.168-4.775s2.169,2.138,2.169,4.775v24.829c0,1.793-.66,3.247-1.475,3.247s-1.475,1.454-1.475,3.247V373.9c0,3.586-1.32,6.494-2.949,6.494-2.012,0-3.643,3.591-3.643,8.022v7.831c0,2.215.816,4.011,1.822,4.011s1.821-1.8,1.821-4.011v-1.337c0-2.953,1.087-5.348,2.429-5.348h.52c1.629,0,2.949,2.908,2.949,6.494v66.275c0,2.637-.971,4.775-2.169,4.775h-.173c-1.1,0-1.995-1.966-1.995-4.393v-1.146c0-1.793-.66-3.247-1.475-3.247s-1.475,1.454-1.475,3.247v24.065c0,1.793.66,3.247,1.475,3.247s1.475-1.454,1.475-3.247v-3.056c0-2.637.971-4.775,2.168-4.775s2.169,2.138,2.169,4.775v25.593c0,1.793-.66,3.247-1.475,3.247s-1.475,1.454-1.475,3.247v23.3c0,1.793-.66,3.247-1.475,3.247s-1.475,1.454-1.475,3.247v5.921c0,3.586,1.321,6.494,2.949,6.494s2.949,2.908,2.949,6.494V601.37c0,2.637-.971,4.775-2.169,4.775s-2.168-2.138-2.168-4.775v-9.932c0-1.793-.66-3.247-1.475-3.247s-1.475,1.454-1.475,3.247v21.2c0,4.43,1.631,8.021,3.643,8.021s3.643,3.591,3.643,8.022v21.773c0,4.431-1.631,8.022-3.643,8.022h-.52c-1.725,0-3.123,3.078-3.123,6.876v2.1c0,2.637.971,4.775,2.168,4.775s2.168,2.137,2.168,4.775v8.786c0,1.793.66,3.247,1.475,3.247s1.475,1.454,1.475,3.247v28.649c0,2.637-.971,4.775-2.169,4.775h-.087c-1.15,0-2.082-2.052-2.082-4.584v-1.337c0-1.793-.66-3.247-1.475-3.247s-1.475,1.454-1.475,3.247V753.4c0,1.793.66,3.247,1.475,3.247s1.475-1.454,1.475-3.247V745c0-2.638.971-4.775,2.168-4.775s2.169,2.138,2.169,4.775v19.29c0,3.583-1.321,6.494-2.949,6.494s-2.949,2.911-2.949,6.494v5.157c0,1.8.66,3.247,1.475,3.247s1.475,1.452,1.475,3.247V800c0,1.8.66,3.247,1.475,3.247s1.475,1.452,1.475,3.247v11.65c0,3.583-1.321,6.494-2.949,6.494s-2.949,2.911-2.949,6.494V836.1c0,4.217-1.553,7.64-3.47,7.64s-3.47,3.422-3.47,7.64V863.6c0,3.377,1.243,6.112,2.776,6.112h.26c1.389,0,2.515-2.483,2.515-5.539v-.764c0-2.636.971-4.775,2.168-4.775s2.168,2.139,2.168,4.775v14.706c0,4.217-1.553,7.64-3.47,7.64s-3.47,3.422-3.47,7.64v7.449c0,2.429.893,4.393,2,4.393s1.995,1.963,1.995,4.393V918.8c0,2.43-.893,4.393-1.995,4.393s-2,1.963-2,4.393v.764c0,2.85,1.049,5.157,2.342,5.157h.434c1.533,0,2.776,2.735,2.776,6.112v4.011c0,5.172-1.9,9.359-4.25,9.359H217.52c-1.15,0-2.082-2.055-2.082-4.584s-.932-4.584-2.082-4.584h-3.643c-1.15,0-2.082,2.055-2.082,4.584s-.932,4.584-2.082,4.584H193.407c-.479,0-.867-.856-.867-1.91s-.388-1.91-.867-1.91h-5.031c-1.246,0-2.255-2.223-2.255-4.966s-1.01-4.966-2.255-4.966h-5.118c-.91,0-1.648,1.627-1.648,3.629s-.738,3.629-1.648,3.629h-5.291c-1.437,0-2.6,2.567-2.6,5.73s-1.165,5.73-2.6,5.73H149.43c-1.1,0-1.995-1.963-1.995-4.393s.893-4.393,1.995-4.393H150.9c1.246,0,2.255-2.223,2.255-4.966s-1.01-4.966-2.255-4.966H144.4c-2.348,0-4.25,4.186-4.25,9.359s-1.9,9.359-4.25,9.359H125.317c-1.1,0-1.995-1.963-1.995-4.393V952.8c0-2,.738-3.629,1.648-3.629s1.648-1.627,1.648-3.629V944.2c0-2.743-1.01-4.966-2.255-4.966H114.128c-1.246,0-2.255,2.223-2.255,4.966v.764c0,2.322.854,4.2,1.908,4.2s1.908,1.879,1.908,4.2v.191c0,2.43-.893,4.393-1.995,4.393h-7.633c-1.1,0-1.995-1.963-1.995-4.393s-.893-4.393-1.995-4.393H94.264c-1.1,0-1.995,1.963-1.995,4.393s-.893,4.393-1.995,4.393H83.162c-1.773,0-3.209-3.163-3.209-7.066s-1.437-7.067-3.209-7.067H74.228c-1.15,0-2.082,2.055-2.082,4.584s-.932,4.584-2.082,4.584H61.044c-1.725,0-3.123-3.079-3.123-6.876v-3.629c0-1.8.66-3.247,1.475-3.247s1.475-1.452,1.475-3.247v-1.146c0-2.43-.893-4.393-1.995-4.393H53.324c-1.1,0-1.995,1.963-1.995,4.393v.573c0,2.109.777,3.82,1.735,3.82s1.735,1.711,1.735,3.82V944.2c0,2.742-1.01,4.966-2.255,4.966H45.864c-1.1,0-1.995,1.963-1.995,4.393s-.893,4.393-1.995,4.393H31.986c-1.1,0-1.995-1.963-1.995-4.393s.893-4.393,1.995-4.393h.087c1.15,0,2.082-2.055,2.082-4.584V944.2c0-2.743-1.01-4.966-2.255-4.966h-3.99c-1.246,0-2.255,2.223-2.255,4.966s-1.01,4.966-2.255,4.966H20.1c-1.246,0-2.255-2.223-2.255-4.966s-1.01-4.966-2.255-4.966H13.858c-1.725,0-3.123,3.079-3.123,6.876s-1.4,6.876-3.123,6.876H4.837c-1.725,0-3.123-3.079-3.123-6.876v-2.865c0-2.215.816-4.011,1.822-4.011s1.822-1.8,1.822-4.011V922.621c0-2.215-.816-4.011-1.822-4.011s-1.822-1.8-1.822-4.011V901.23c0-2.216.816-4.011,1.822-4.011s1.822-1.8,1.822-4.011V879.457c0-2.216-.816-4.011-1.822-4.011s-1.822-1.8-1.822-4.011v-6.112c0-2.849,1.049-5.157,2.342-5.157S6.4,857.859,6.4,855.009V841.831c0-3.583-1.32-6.494-2.949-6.494S.5,832.426.5,828.843V807.834c0-1.9.7-3.438,1.561-3.438s1.561,1.536,1.561,3.438v.955c0,2.43.893,4.393,1.995,4.393h.26c1.246,0,2.255-2.223,2.255-4.966v-5.157c0-3.9-1.437-7.067-3.209-7.067s-3.209-3.163-3.209-7.067V785.87c0-2.216.816-4.011,1.822-4.011s1.822-1.8,1.822-4.011V766.579c0-2.957-1.087-5.348-2.429-5.348S.5,758.837.5,755.884v-13.37c0-1.9.7-3.438,1.561-3.438s1.561-1.539,1.561-3.438v-9.168c0-2.743,1.01-4.966,2.255-4.966s2.255-2.223,2.255-4.966V705.461c0-2.743-1.01-4.966-2.255-4.966s-2.255-2.223-2.255-4.966v-4.966c0-2.742,1.01-4.966,2.255-4.966s2.255-2.223,2.255-4.966V655.039c0-1.688-.621-3.056-1.388-3.056s-1.388,1.368-1.388,3.056v4.393c0,2.215-.816,4.011-1.822,4.011s-1.822-1.8-1.822-4.011V614.739c0-2.215.816-4.011,1.822-4.011s1.822,1.8,1.822,4.011v.955c0,2.743,1.01,4.966,2.255,4.966h.434c1.485,0,2.689-2.651,2.689-5.921V588.382c0-3.27-1.2-5.921-2.689-5.921s-2.689,2.651-2.689,5.921v6.112c0,2.215-.816,4.011-1.822,4.011s-1.822-1.8-1.822-4.011V545.218c0-2.215.816-4.011,1.822-4.011s1.822,1.8,1.822,4.011v2.674c0,3.27,1.2,5.921,2.689,5.921s2.689-2.651,2.689-5.921V532.23c0-3.27-1.2-5.921-2.689-5.921s-2.689-2.651-2.689-5.921V496.9c0-1.688.621-3.056,1.388-3.056s1.388,1.368,1.388,3.056v1.146c0,2.321.854,4.2,1.908,4.2h.087c1.1,0,1.995-1.966,1.995-4.393v-23.3c0-2.426-.893-4.393-1.995-4.393s-1.995,1.966-1.995,4.393v2.865c0,2.743-1.01,4.966-2.255,4.966s-2.255-2.223-2.255-4.966V466.146c0-4.325,1.592-7.831,3.556-7.831s3.556-3.506,3.556-7.831V437.5c0-3.27-1.2-5.921-2.689-5.921H7.005c-.91,0-1.648,1.625-1.648,3.629s-.738,3.629-1.648,3.629H3.536c-1.006,0-1.822-1.8-1.822-4.011V393.569c0-2.215.816-4.011,1.822-4.011s1.822-1.8,1.822-4.011v-9.932c0-3.27,1.2-5.921,2.689-5.921s2.689-2.651,2.689-5.921V334.743c0-2.215-.816-4.011-1.822-4.011s-1.822,1.8-1.822,4.011v2.674c0,3.27-1.2,5.921-2.689,5.921s-2.689-2.651-2.689-5.921V314.88c0-3.9,1.437-7.067,3.209-7.067H6.485c.91,0,1.648,1.625,1.648,3.629s.738,3.629,1.648,3.629h.347c1.1,0,1.995-1.966,1.995-4.393V286.231c0-2.426-.893-4.393-1.995-4.393s-1.995,1.966-1.995,4.393v3.438c0,3.9-1.437,7.067-3.209,7.067s-3.209-3.164-3.209-7.067v-38.2c0-2.215.816-4.011,1.822-4.011s1.822,1.8,1.822,4.011v.382c0,2.426.893,4.393,1.995,4.393h.173c1.2,0,2.168-2.138,2.168-4.775v-19.1c0-4.114-1.515-7.449-3.383-7.449s-3.383-3.335-3.383-7.449V195.127c0-2.532.932-4.584,2.082-4.584s2.082,2.052,2.082,4.584v.955c0,3.059,1.126,5.539,2.515,5.539h.781c1.82,0,3.3-3.249,3.3-7.258v-7.831c0-2.426-.893-4.393-1.995-4.393s-1.995-1.966-1.995-4.393V166.669c0-2.637-.971-4.775-2.168-4.775s-2.168-2.138-2.168-4.775v-7.258c0-3.27,1.2-5.921,2.689-5.921s2.689-2.651,2.689-5.921V115.1c0-2.215-.816-4.011-1.822-4.011s-1.822,1.8-1.822,4.011v3.247c0,2.532-.932,4.584-2.082,4.584s-2.082-2.052-2.082-4.584V100.585c0-4.114,1.515-7.449,3.383-7.449S9.694,89.8,9.694,85.688V82.632c0-2.637-.971-4.775-2.168-4.775s-2.168-2.138-2.168-4.775V67.543c0-5.063,1.864-9.168,4.163-9.168h.867c1.82,0,3.3-3.249,3.3-7.258V48.253c0-2.426-.893-4.393-1.995-4.393S9.694,41.893,9.694,39.467Z" transform="translate(0 10.5)" fill="#fec011" stroke="#000" stroke-width="1"/>
</svg>
